<?xml version="1.0" encoding="utf-8"?>
<!-- Generator: Adobe Illustrator 22.1.0, SVG Export Plug-In . SVG Version: 6.00 Build 0)  -->
<svg version="1.0" id="Layer_1" xmlns="http://www.w3.org/2000/svg" xmlns:xlink="http://www.w3.org/1999/xlink" x="0px" y="0px"
	 viewBox="0 0 384 384" style="enable-background:new 0 0 384 384;" xml:space="preserve">
<style type="text/css">
	.st0{fill:#ADADAD;}
</style>
<path class="st0" d="M374,0h-99.7c-5.5,0-10,4.5-10,10c0,5.5,4.5,10,10,10H350L155.5,216.4c-3.7,3.9-3.6,10.1,0.2,14
	c3.9,3.8,10.1,3.9,14,0.1L364,34.3v75.4c0,5.5,4.5,10,10,10c5.5,0,10-4.5,10-10V10C384,4.5,379.5,0,374,0z"/>
<path class="st0" d="M324.1,214.5c-5.5,0-10,4.5-10,10V334c0,16.6-13.4,30-30,30H50c-16.6,0-30-13.4-30-30V99.9
	c0-16.6,13.4-30,30-30h109.5c5.5,0,10-4.5,10-10c0-5.5-4.5-10-10-10H50c-27.6,0-50,22.4-50,50V334c0,27.6,22.4,50,50,50h234.1
	c27.6,0,50-22.4,50-50V224.5C334.1,219,329.7,214.5,324.1,214.5z"/>
</svg>
