<?xml version="1.0" encoding="utf-8"?>
<!-- Generator: Adobe Illustrator 22.1.0, SVG Export Plug-In . SVG Version: 6.00 Build 0)  -->
<svg version="1.1" id="Layer_1" xmlns="http://www.w3.org/2000/svg" xmlns:xlink="http://www.w3.org/1999/xlink" x="0px" y="0px"
	 viewBox="0 0 348 510" style="enable-background:new 0 0 348 510;" xml:space="preserve">
<style type="text/css">
	.st0{fill:#ED1B2D;}
	.st1{fill:#FFFFFF;}
	.st2{fill:#231F20;}
	.st3{fill:#FDB826;}
</style>
<path class="st0" d="M308.1,33.8l0.8,15.5c-4.5,0-1.3,6-5.2,6.3c-6.9,21.4-28.6,18.3-37.1,38.1c-4.5,6.3-8.6,12.5-8.4,20.7l-4.1,3.3
	c0.6,0.9,1.9,1.4,3.1,1.1v4.1h-7.2c-5.2-15.8,9.8-31.1,3.1-47.7c-11.1-14.2-35.2-26-23.7-46.5c2.6,0.8,4.5-2.4,5.2-4.1
	c0-0.8-0.4-1.7-1.1-2.1c5.6-8.2,17.1-5.6,24.7-6.3c2.8,0.4,4.9,3.3,7.4,5.2c5.8-3.5,8-9.5,16.6-7.2l2-2.1
	C294.1,16.7,308.6,19.3,308.1,33.8z"/>
<path class="st1" d="M298.7,30.7c0.8,6,1.1,14.6-2,20.7c-1.5,2.1-7.4,3.3-7.4,7.2h-1.9l-23.9,21.8c-1.5-15.8-16.2-19.2-22.7-32.1
	c-5.8-1.1-4.5-8-3.3-11.5c2.7-4.9,6.6-9.2,11.5-12.3c6.3-2.4,12.1,2.8,13.4,9.3c6.2,1.1,4.9,11.6,11.5,8.2c3.5-3.1,2.4-5.6,1.1-9.3
	c-1.5-2-4.3-3.9-2.1-7.2C280,21.1,295.8,19.7,298.7,30.7L298.7,30.7z"/>
<path class="st2" d="M161.5,95.8c4.4,12.4,17.6,19.9,27.3,28.1c12.9,8.8,23.9,18.6,36.3,27.3c9.1-9.8,2.7-27.5,10.9-38.3
	c5.9-4.4,10.1,4.8,16.2,8.2c5.9-1.1,14,2.5,17.2-3.3c1.9,0.8,5.3,3.3,5.1,5.1C259,134,263,156.2,255.3,170.3c1.3,5.1-2.3,8-1.1,12.9
	c14.1,17.4,34.2,28.9,51.4,43.4c2.9-1.3,5.3,1.9,5.9,4c-1.5-0.2-2.1,1.7-4,1.1c-6.5,21.2-3.6,41.3-8.9,60.4c4.6,2.7,0,6.7,0,10.1
	c3.8,22.4-7.8,45.1,2.1,67.3c1.3,4.2-2.3,7.4-1.1,10.1c-2.1,11.8,4,30.2,0,42.2c0.9,4.1,0.6,8.3-1.1,12.1
	c1.1,18.8-0.8,34.2-1.1,51.2c0.8,2.9,4.6,5.9,7.2,3.3c0.6,2.5-4,6.7-3.3,10.1c-15.8,0.3-31.6-0.7-47.2-3.3
	c-41.3,4.4-87,9.8-125.8-0.8c-34.2,2.7-65.2,3.8-98.7-1.1c-1.9,3.8-6.7,1.3-10.1,1.9c-3.3-5.1-6.7,3.3-10.1-2.9
	c6.7-12.8-2.9-25.4,3.3-39.2c1.3-30,1.3-63,4-93.7h1.1c0.4-20.7,6.9-36.6,5.1-57.3c2.3-17.8,0.2-35.1-2.1-53.5
	c-1.9-2.9-7.8-0.8-6.9-5.9c-1.7-6.1,10.1-8,8-16.2c1.7-1.9,4.8-0.8,7.2-1.1c4.6-8.8,12.8-14.8,19.1-22.2c12-7.6,16.2-20.9,29.3-27.1
	c21.3-21.8,47.9-37.5,64.3-62.2c5.3-4,8.8-9.8,10.1-16.2c-6.5-0.6-3.8-5.7-2.9-10.1h6.9c0,0.8,0.3,1.6,1.1,2.1
	c5.3,0.2,5.7-7.8,12.1-6.1L161.5,95.8z"/>
<path class="st1" d="M165.5,114.8c8.6,4.6,14.2,14.1,24.3,17.3c0,4,5.3,6.3,6.9,8c5.3,6.5,13.3,10.9,17.2,16.2
	c14.1,9.4,22,20.7,29.3,34.2c18.8,12.5,31.9,28.5,50.3,40.2c-1.5,10.9-1.5,22.1,0,33.2c-2.3,1.9,0.2,8.2-2.1,11.2
	c-2.3,2.9-4.2,9.4-1.9,14h-2.1c0.8,13.4,0,30.8-4,42.2c2.7,9.8-1.7,20.5,4,30.2c0.6,40.2-0.4,81.2-2.9,122.9
	c-1.5,2.5-6.1-1.1-6.1,2.9h-2.2c-2.9-6.1-8.4-0.8-14-2.9c-19.1,1.5-38,6.5-59.4,5.9c-18.4,0.6-37-0.3-55.2-2.9v-1.1
	c-13.7-4-29.3-1.1-43.2,0c-16.7,4.8-35.7-0.6-54.5,1.1v-1.1c-4.2-1.5-8.7-1.5-12.9,0v1.2c-0.8-2.9-5.3-1.7-8-2.1
	c0.6,2.1-5.7-0.2-8.2-0.8c0.8-62.4,5.9-134.1,11.2-198.3c-4.4-17.2-4.4-35.3,0-52.4c9.8-6.5,12.9-18,24.1-24.1
	c27.3-38.3,71.2-56.7,94.3-98.6C155.3,100.8,162.1,112.1,165.5,114.8z M261.1,127.9c-1.9,6.3-0.8,17.2-6.9,22.2l-5.1,22.2
	c-3.3,0.8-2.5-1.3-4-3.3c-4.4-6.5-12.1-6.5-15.1-13.9c3.3-10.5,4.2-21.8,8-32.3C247.1,121.4,251.7,133.5,261.1,127.9L261.1,127.9z"
	/>
<path class="st2" d="M200.2,210.8c15.1,19.8,34.5,33.5,59.1,36.3c3.6-0.1,7.1-0.4,10.6-0.9c1.4,0.1,2.4,1.2,2.4,2.5l-1.1,3.1
	l-37,55.3c-1.8,3.8-6.8,1.1-7.8,5.2l-1.6,3.6c2.5,4.6,3.1,10,1.5,15.1c-5.3,8.1-13.2,14.1-16,23.5c1.1,6.9,5.4,12.6,7.6,19.2
	c1.9,4.6,2.8,9.7,2.6,14.7c3.7-1.5,8.9-4.3,12.4-0.4c2.6,3.9,2.7,8.8,0.2,12.8c-2.9,5.7-10,8.9-15.4,11.9c-1.3,4.4-1.5,9.8-5.9,12.3
	c-3.1,1.7-6.5,2.6-10.1,2.8c-0.8,4.3-4.2,7.6-8.5,8.5c-0.2,3.3,0.2,7.6-2.9,9.5c-2.3,2-5.5,2.8-8.4,2.1c-0.3,4.6-3.3,8.6-7.6,10.3
	l-4.7,0.3c-3.8,4-9.1,4.2-14.2,3.3c-2.9-0.8-5.6-2.5-7.7-4.7c-4.3,0.4-8.5-1.5-11.1-5.1c-1.4-2-2.5-4.2-3.5-6.5
	c-6.2-1.2-11.1-5.9-12.4-12l-1.1-6.5c-11.2-9.9-8.9-27.4-4.3-39.9l5.4-12.1c-4-8.5-9.2-16.2-13.6-24.6c-2.6-0.4-6.1,0-7.7-2.6
	l-12.3-22.8c-2.5-1.3-5.7-1.7-7.2-4.5l-30.4-55.9c-0.5-1.9-0.3-4,0.7-5.8l3.5-2.3c11.6-1.7,23.3-4.4,31.9-14.3
	c3.9-3.6,8.2-10.2,14.3-7.1l2,1.9l32.2,58.4c0.4,2.4-2.5,3.9-0.7,6l10.3,20.6c1.5,3.4-2.9,6.5,0.6,9.3l0.9-1.4
	c2.3-7.7,5.5-16.8,3.3-25.2c0.6-9.3,10.9-12.8,18.2-15.1l3.3-6c-1.8-2.5-2.3-5.8-1.3-8.7c9.1-21.4,18.4-42.2,27.7-63.6
	C197.6,210.1,199.1,209.9,200.2,210.8L200.2,210.8z"/>
<path class="st0" d="M262,253.5c-0.6,1.8-1.6,3.4-2.7,4.8c-24.8,3.6-46.2-11.5-62.2-29.3c0.4-2.3,1.3-4.5,2.5-6.5
	C215.8,240.2,235.8,256,262,253.5L262,253.5z"/>
<path class="st1" d="M253.7,265.9c-0.6,1.7-1.6,3.2-2.7,4.5c-24.2,0.9-43.8-11.7-59.6-28.8c0.5-1.8,1.3-3.6,2.4-5.2
	C209.7,253.5,229.1,266.8,253.7,265.9z"/>
<path class="st0" d="M246.4,276.9c-0.9,1.5-1.8,4.9-4.4,4.6c-22.9-0.2-41-11.5-56.3-26.3c0.4-2.2,1.3-4.3,2.4-6.3
	C204,263.9,222.4,277.6,246.4,276.9z M125.2,294.5c0.2,7.3-7.9,10.5-12.9,14.7l-10.6,5.7c-0.9,1.2-1.1,2.6-0.4,3.9
	c4.2,4.6,8.9-1.7,12.9-2.9c4.8-2.8,9.4-6.1,13.6-9.8l9.9,18.1c-1.9,5.9-8.2,9.9-13.3,12.9c-5.9,2.9-12.2,6.8-18.9,5.5
	c-5.2-8.2-9.4-16.7-14.3-24.8c-2.6,0.2-5.2-1.4-6.3-3.8l-27.2-49.4c-0.4-1.8,1.8-1.8,2.6-2.4c13.3-1.4,25.7-10.3,35.3-19.7l1.7,0.4
	L125.2,294.5z"/>
<path class="st1" d="M239.1,287.3c-0.7,1.9-1.7,3.7-3.1,5.2c-22.3,0.4-40.3-10.4-55.6-24.7c0.2-2.3,1.1-4.5,2.3-6.5
	C198.5,275.6,216.1,287.2,239.1,287.3z"/>
<path class="st0" d="M231.5,298c-0.3,1.7-1.3,3.2-2.6,4.1c-20.9,0-38.1-9.8-53.1-22.1c-0.5-1.9-0.1-3.9,1.1-5.5
	C192.3,287.2,209.7,297.7,231.5,298z M220.1,309c-0.9,4.4-3.8,8.1-7.8,10.1c-8.4,4.5-18.9,3.1-27.2-1.1c-6.3-4-12.6-8.1-12.9-16.2
	c0-4.3,1.3-8.5,3.8-12.1C189,299.6,204.1,306.2,220.1,309z"/>
<path class="st3" d="M164.5,300.2c-1.5,8.5,4,16.5,10.7,20.9c10.4,7.7,27.7,11.3,39.5,4.9l4.5-2.6c1.1,1.3,1.3,2.9,0.6,4.5
	c-4.6,8.2-11.8,14.8-15.6,23.5c-1.6,13.2,10.6,22.7,8.9,36c-0.4,9.1-1.6,18.1-3.3,27.1c-1.4-11.6-8.1-21.8-18.2-27.5
	c-2.3-0.5-4.7-0.1-6.8,1.1c-1.7,1.4-3.1,3.3-3.8,5.3c-2.5-0.8-5.3-0.6-7.6,0.5c-4,2.2-6.3,6.5-6.1,11.1c-3.8,1.4-6.4,4.6-7.1,8.5
	c0.3,2.5-0.4,5.6,0.9,7.9c-6.9,8.8-4.3,21.4,0,30.4l2.5,3.3c-1.9,1.2-4.3,1.3-6.3,0.2c-8.4-4-7.9-14.2-7.4-22.7
	c-0.2-5.2,3.5-11.9-0.2-15.9c-1.6-0.6-3.4,0.1-4,1.7c0,0.1,0,0.1-0.1,0.2c-2.5,9.9-4.7,21.8-1.9,31.6c-6.1-3.9-6.7-11.7-6.2-18.5
	c0.7-8.3,2.2-16.6,4.5-24.6c0-1.4-0.5-2.6-1.6-3.4c-1.7-0.6-3.5,0.2-4.1,1.9c-3.5,10.5-5.1,21.6-4.5,32.7c-3.3-0.7-4.4-5.1-5.5-7.9
	c-1.4-9.9,2-19.9,4.1-29.3c0-1.6,0-3.8-2.1-4.2c-5.3,0.3-4.9,6.8-6.5,10.8l-1.5,9.9c-4.5-6.1-2.3-15.6-0.6-22.7
	c6.9-18.5,18-34.9,27.2-52.4c4.1-9.9,10.2-19.7,9.4-31.6c-0.8-3.1-0.4-6.3,1.2-9.1c1.9-1.7,4.3-2.8,6.8-3.3L164.5,300.2z"/>
<path class="st1" d="M140.6,339c-4.5,9.8-9.8,19.3-15.4,28.6h-0.3l-9.9-18.3c8.5-3.5,16.4-8.1,23.5-13.9
	C139.4,336.4,140.1,337.6,140.6,339z"/>
<path class="st2" d="M159.4,357.4c-0.2,3.3-1.5,6.5-1.5,9.5c3.3-4.7,6.7-11.1,12.4-13.5c1.6,0.2,2.8,1.4,3.3,2.8
	c1.6,12.7-2.2,26-6.3,37.3c-1.6-0.6-2.9-1.6-4.1-2.7c2.4-8.7,6.5-17.1,7.6-26.6c0-2.3,1.7-5.5-0.2-7.2c-4.1,2.3-5.8,6.5-8.4,10.2
	c-2.7,5.1-5.3,10.5-7.7,15.7c-1.4-1.7-7.3-2.7-4.5-6.1c4-8.1,6.5-16.9,7.6-26c-0.5-0.5-1.4-0.5-1.9,0c-6.4,6.9-11.8,14.8-15.7,23.5
	l-3.8-2.8c5.6-8.9,10.3-19.5,20.5-24.7c0.9,0,1.8,0.3,2.4,0.9C160.7,350.8,159.4,354.6,159.4,357.4L159.4,357.4z"/>
<path class="st1" d="M229.4,393.8c0.3,5.2-5.1,7.7-8.6,9.8c-0.4,0-1.5,0.4-1.3-0.4l0.7-7.2c2.4-1.7,5.3-2.9,8.1-3.6L229.4,393.8z
	 M201.5,407.2c1.4,3.7,4.6,8.7,0.8,12.3c-0.5,0.2-1.2,0.4-1.8,0.4c-2.9-8.6-7.9-16.5-14.2-22.9c0-1.6,0.8-3.2,2.1-4.1
	C195.8,393.5,198.1,401.9,201.5,407.2L201.5,407.2z M189.3,410.7c1.8,6.3,10.6,13.8,2.9,19.5c-4.6-9.1-10.7-17.2-18.2-24
	c-0.6-1.6-0.4-3.4,0.3-4.9c0.8-1.1,2-1.7,3.3-2C183.3,400.2,186.2,406.1,189.3,410.7z M181.2,422.3c3.2,4.6,5.4,9.9,6.5,15.4
	c-0.2,1.8-1.3,3.3-2.9,4l-3.3-0.6c-2.6-7.4-4.1-18.3-13.5-20.5c-1.6-2.4-1.9-5.6-0.8-8.3c1.4-1.3,3.4-1.4,4.8-0.2
	C175.9,414.6,179.2,418.1,181.2,422.3z M171.4,430.9c2.3,5.2,3.5,10.6,3.6,16.2c-0.3,1.8-1.7,3.3-3.5,3.6c-5.6-0.7-5.8-7.4-7.6-11.4
	c-1.1-3.9-0.6-8,1.2-11.7C167.5,425.6,170.6,428.6,171.4,430.9L171.4,430.9z"/>
<path class="st2" d="M323.5,477.8c5.7,0,10.3,4.5,10.4,10.2c0,5.7-4.5,10.3-10.2,10.4c-5.7,0-10.3-4.5-10.4-10.2v-0.1
	c-0.1-5.6,4.4-10.2,10-10.3C323.4,477.8,323.4,477.8,323.5,477.8z M323.5,479.5c-4.8,0.3-8.5,4.4-8.2,9.3c0.3,4.4,3.8,7.9,8.2,8.2
	c4.8-0.3,8.5-4.4,8.2-9.3C331.4,483.2,327.9,479.7,323.5,479.5z M321.6,494.1h-1.8v-11.5c1.1-0.2,2.2-0.3,3.3-0.3
	c1.3-0.1,2.5,0.2,3.6,0.8c0.7,0.5,1.2,1.5,1.1,2.4c0,1.4-0.9,2.5-2.2,2.8c1.2,0.4,2,1.6,1.9,2.8c0.1,0.9,0.3,1.9,0.7,2.8h-1.9
	c-0.4-0.9-0.7-1.9-0.7-2.9c-0.1-1.2-1.1-2.1-2.2-2c-0.1,0-0.1,0-0.2,0h-1.3v4.9v0H321.6z M321.6,487.7h1.4c1.3,0.3,2.4-0.4,2.7-1.7
	c0-0.1,0-0.2,0-0.3c-0.1-1.3-1.3-2.2-2.4-2.1c-0.1,0-0.2,0-0.3,0.1c-0.4,0-0.8,0-1.4,0V487.7L321.6,487.7z"/>
</svg>
