<?xml version="1.0" encoding="utf-8"?>
<!-- Generator: Adobe Illustrator 22.1.0, SVG Export Plug-In . SVG Version: 6.00 Build 0)  -->
<svg version="1.1" id="Layer_1" xmlns="http://www.w3.org/2000/svg" xmlns:xlink="http://www.w3.org/1999/xlink" x="0px" y="0px"
	 viewBox="0 0 333 133" style="enable-background:new 0 0 333 133;" xml:space="preserve">
<style type="text/css">
	.st0{fill:#6A90CA;}
	.st1{fill:#646363;}
	.st2{fill:#ED1B2D;}
	.st3{fill:#FFFFFF;}
	.st4{fill:#231F20;}
	.st5{fill:#FDB826;}
</style>
<g>
	<path class="st0" d="M98.3,76.6V57.4h8.4c0.9,0,1.7,0.2,2.4,0.5c0.7,0.4,1.4,0.8,1.9,1.4c0.5,0.6,0.9,1.3,1.2,2
		c0.3,0.7,0.4,1.5,0.4,2.3c0,0.7-0.1,1.3-0.3,1.9c-0.2,0.6-0.4,1.2-0.8,1.7c-0.3,0.5-0.7,0.9-1.2,1.3s-1,0.6-1.5,0.8l4.5,7.3h-3.4
		l-4.2-6.7h-4.4v6.7L98.3,76.6L98.3,76.6z M101.3,67.2h5.3c0.4,0,0.8-0.1,1.2-0.3c0.3-0.2,0.7-0.5,0.9-0.8c0.3-0.3,0.5-0.7,0.6-1.2
		c0.1-0.4,0.2-0.9,0.2-1.4s-0.1-0.9-0.3-1.4c-0.2-0.4-0.4-0.8-0.7-1.1c-0.3-0.3-0.6-0.6-1-0.8s-0.8-0.3-1.2-0.3h-5.2L101.3,67.2
		L101.3,67.2z"/>
	<path class="st0" d="M122.1,76.9c-1.1,0-2.1-0.2-3-0.6s-1.7-0.9-2.3-1.6s-1.1-1.4-1.5-2.3c-0.3-0.9-0.5-1.8-0.5-2.8
		s0.2-1.9,0.5-2.8s0.8-1.7,1.5-2.3c0.6-0.7,1.4-1.2,2.3-1.6c0.9-0.4,1.9-0.6,3-0.6s2.1,0.2,3,0.6c0.9,0.4,1.7,0.9,2.3,1.6
		c0.6,0.7,1.1,1.4,1.5,2.3c0.3,0.9,0.5,1.8,0.5,2.8s-0.2,1.9-0.5,2.8s-0.8,1.7-1.5,2.3c-0.6,0.7-1.4,1.2-2.3,1.6
		C124.2,76.7,123.2,76.9,122.1,76.9 M117.8,69.6c0,0.7,0.1,1.3,0.3,1.9c0.2,0.6,0.5,1.1,0.9,1.5s0.8,0.8,1.3,1s1.1,0.4,1.7,0.4
		s1.2-0.1,1.7-0.4c0.5-0.2,1-0.6,1.3-1c0.4-0.4,0.7-0.9,0.9-1.5c0.2-0.6,0.3-1.2,0.3-1.9c0-0.7-0.1-1.3-0.3-1.9
		c-0.2-0.6-0.5-1.1-0.9-1.5s-0.8-0.8-1.3-1s-1.1-0.4-1.7-0.4s-1.1,0.1-1.6,0.4s-1,0.6-1.3,1s-0.7,0.9-0.9,1.5
		C117.9,68.3,117.8,68.9,117.8,69.6"/>
	<path class="st0" d="M145,76.6h-3v-7.9c0-1.3-0.2-2.3-0.6-2.9c-0.4-0.6-1.1-0.9-1.9-0.9c-0.4,0-0.9,0.1-1.3,0.2s-0.8,0.4-1.2,0.7
		c-0.4,0.3-0.7,0.6-1,1.1s-0.5,0.9-0.7,1.3v8.4h-3V62.4h2.7v2.8c0.5-1,1.3-1.7,2.4-2.3c1-0.6,2.2-0.8,3.4-0.8c0.8,0,1.5,0.2,2.1,0.5
		c0.5,0.3,1,0.7,1.3,1.3c0.3,0.5,0.5,1.2,0.7,1.8c0.1,0.7,0.2,1.4,0.2,2.2C145,67.9,145,76.6,145,76.6z"/>
	<path class="st0" d="M152.5,76.9c-0.7,0-1.3-0.1-1.9-0.3c-0.6-0.2-1.1-0.5-1.5-0.9s-0.8-0.9-1-1.4s-0.4-1.1-0.4-1.8
		c0-0.7,0.1-1.3,0.4-1.8c0.3-0.5,0.7-1,1.2-1.4s1.2-0.7,1.9-0.9s1.5-0.3,2.4-0.3c0.7,0,1.3,0.1,2,0.2c0.6,0.1,1.2,0.3,1.8,0.5v-1
		c0-1-0.3-1.9-0.9-2.5c-0.6-0.6-1.5-0.9-2.6-0.9c-0.8,0-1.5,0.1-2.2,0.4s-1.5,0.7-2.3,1.2l-0.9-1.9c1.8-1.2,3.7-1.8,5.7-1.8
		s3.5,0.5,4.6,1.5c1.1,1,1.6,2.4,1.6,4.3v5.1c0,0.6,0.3,1,0.8,1v2.5c-0.3,0.1-0.5,0.1-0.8,0.1c-0.2,0-0.4,0-0.6,0
		c-0.6,0-1-0.1-1.3-0.4s-0.5-0.7-0.6-1.1l-0.1-0.9c-0.6,0.8-1.4,1.5-2.3,1.9C154.5,76.7,153.6,76.9,152.5,76.9 M153.3,74.7
		c0.7,0,1.4-0.1,2-0.4s1.1-0.6,1.5-1.1c0.4-0.3,0.6-0.7,0.6-1v-1.9c-0.5-0.2-1-0.3-1.6-0.5c-0.6-0.1-1.1-0.2-1.7-0.2
		c-1.1,0-1.9,0.2-2.6,0.7c-0.7,0.5-1,1.1-1,1.8c0,0.7,0.3,1.3,0.8,1.8S152.5,74.7,153.3,74.7"/>
	<path class="st0" d="M164.3,56.8h3v15.7c0,0.5,0.1,0.9,0.4,1.2c0.3,0.3,0.7,0.4,1.1,0.4c0.2,0,0.4,0,0.7-0.1s0.5-0.2,0.7-0.2
		l0.4,2.3c-0.4,0.2-1,0.4-1.5,0.5c-0.6,0.1-1.1,0.2-1.6,0.2c-1,0-1.8-0.3-2.4-0.8c-0.6-0.6-0.9-1.4-0.9-2.4
		C164.3,73.6,164.3,56.8,164.3,56.8z"/>
	<path class="st0" d="M178.5,76.9c-1,0-1.8-0.2-2.7-0.6c-0.8-0.4-1.5-0.9-2.1-1.6s-1.1-1.4-1.4-2.3c-0.3-0.9-0.5-1.9-0.5-2.9
		s0.2-1.9,0.5-2.8s0.8-1.6,1.3-2.3c0.6-0.7,1.2-1.2,2-1.6c0.8-0.4,1.6-0.6,2.5-0.6c1.1,0,2.1,0.3,3,0.8c0.9,0.6,1.5,1.3,2,2.1v-8.3
		h3v16.3c0,0.3,0.1,0.6,0.2,0.7c0.1,0.1,0.3,0.2,0.6,0.2v2.5c-0.3,0.1-0.5,0.1-0.7,0.1s-0.3,0-0.5,0c-0.6,0-1.1-0.2-1.5-0.5
		s-0.6-0.7-0.6-1.2l-0.1-1.1c-0.5,0.9-1.2,1.6-2.1,2.1C180.6,76.6,179.6,76.9,178.5,76.9 M179.2,74.3c0.4,0,0.9-0.1,1.3-0.2
		c0.4-0.1,0.8-0.3,1.2-0.6c0.4-0.3,0.7-0.6,0.9-0.9c0.3-0.3,0.4-0.7,0.6-1.1v-3.7c-0.2-0.5-0.4-0.9-0.7-1.2c-0.3-0.4-0.6-0.7-1-1
		s-0.8-0.5-1.2-0.6s-0.9-0.2-1.3-0.2c-0.6,0-1.1,0.1-1.6,0.4s-0.9,0.6-1.3,1.1c-0.4,0.5-0.6,1-0.9,1.5c-0.2,0.6-0.3,1.2-0.3,1.8
		c0,0.7,0.1,1.3,0.3,1.8c0.2,0.6,0.5,1.1,0.9,1.5s0.9,0.8,1.4,1C178.1,74.2,178.6,74.3,179.2,74.3"/>
	<polygon class="st0" points="213.8,76.6 213.8,62.7 208.1,73.2 206.4,73.2 200.6,62.7 200.6,76.6 197.6,76.6 197.6,57.4 
		200.9,57.4 207.2,69.1 213.6,57.4 216.8,57.4 216.8,76.6 	"/>
	<path class="st0" d="M220,69.5c0-1,0.2-1.9,0.5-2.8s0.8-1.7,1.5-2.3c0.6-0.7,1.4-1.2,2.3-1.6c0.9-0.4,1.9-0.6,3-0.6
		c1.5,0,2.7,0.3,3.8,1s1.8,1.5,2.4,2.6l-2.9,0.9c-0.3-0.6-0.8-1.1-1.4-1.4c-0.6-0.3-1.2-0.5-1.9-0.5c-0.6,0-1.2,0.1-1.7,0.3
		c-0.5,0.2-1,0.6-1.3,1c-0.4,0.4-0.7,0.9-0.9,1.5s-0.3,1.2-0.3,1.9c0,0.7,0.1,1.3,0.3,1.9s0.5,1.1,0.9,1.5s0.8,0.8,1.4,1
		c0.5,0.2,1.1,0.4,1.6,0.4c0.4,0,0.7,0,1.1-0.1c0.4-0.1,0.7-0.2,1-0.4c0.3-0.2,0.6-0.4,0.8-0.6s0.4-0.5,0.5-0.8l2.9,0.9
		c-0.5,1.1-1.3,1.9-2.4,2.6c-1.1,0.7-2.4,1-3.9,1c-1.1,0-2.1-0.2-3-0.6s-1.7-0.9-2.3-1.6s-1.1-1.5-1.5-2.3
		C220.1,71.4,220,70.5,220,69.5"/>
	<path class="st0" d="M236.7,76.6V57.4h6.8c1.6,0,2.9,0.3,4.1,0.8c1.2,0.5,2.1,1.2,2.9,2.1s1.4,1.9,1.8,3c0.4,1.2,0.6,2.4,0.6,3.7
		c0,1.5-0.2,2.8-0.7,4c-0.4,1.2-1.1,2.2-1.9,3c-0.8,0.8-1.8,1.5-2.9,2c-1.2,0.5-2.5,0.7-3.9,0.7C243.5,76.6,236.7,76.6,236.7,76.6z
		 M249.8,66.9c0-1-0.1-1.9-0.4-2.8c-0.3-0.9-0.7-1.6-1.2-2.2c-0.5-0.6-1.2-1.1-2-1.4c-0.8-0.3-1.7-0.5-2.7-0.5h-3.8v13.9h3.8
		c1,0,1.9-0.2,2.7-0.5s1.4-0.8,2-1.5s0.9-1.4,1.2-2.2C249.7,68.9,249.8,67.9,249.8,66.9"/>
	<path class="st0" d="M262.4,76.9c-1.1,0-2.1-0.2-3-0.6s-1.7-0.9-2.3-1.6c-0.6-0.7-1.1-1.4-1.5-2.3c-0.3-0.9-0.5-1.8-0.5-2.8
		s0.2-1.9,0.5-2.8s0.8-1.7,1.5-2.3c0.6-0.7,1.4-1.2,2.3-1.6c0.9-0.4,1.9-0.6,3-0.6s2.1,0.2,3,0.6c0.9,0.4,1.7,0.9,2.3,1.6
		c0.6,0.7,1.1,1.4,1.5,2.3c0.3,0.9,0.5,1.8,0.5,2.8s-0.2,1.9-0.5,2.8s-0.8,1.7-1.5,2.3c-0.6,0.7-1.4,1.2-2.3,1.6
		C264.5,76.7,263.5,76.9,262.4,76.9 M258.1,69.6c0,0.7,0.1,1.3,0.3,1.9c0.2,0.6,0.5,1.1,0.9,1.5s0.8,0.8,1.3,1s1.1,0.4,1.7,0.4
		s1.2-0.1,1.7-0.4c0.5-0.2,1-0.6,1.3-1c0.4-0.4,0.7-0.9,0.9-1.5c0.2-0.6,0.3-1.2,0.3-1.9c0-0.7-0.1-1.3-0.3-1.9
		c-0.2-0.6-0.5-1.1-0.9-1.5s-0.8-0.8-1.3-1s-1.1-0.4-1.7-0.4s-1.1,0.1-1.6,0.4s-1,0.6-1.3,1c-0.4,0.4-0.7,0.9-0.9,1.5
		C258.2,68.3,258.1,68.9,258.1,69.6"/>
	<path class="st0" d="M285.3,76.6h-3v-7.9c0-1.3-0.2-2.3-0.6-2.9s-1.1-0.9-1.9-0.9c-0.4,0-0.9,0.1-1.3,0.2s-0.8,0.4-1.2,0.7
		c-0.4,0.3-0.7,0.6-1,1.1c-0.3,0.4-0.5,0.9-0.7,1.3v8.4h-3V62.4h2.7v2.8c0.5-1,1.3-1.7,2.4-2.3c1-0.6,2.2-0.8,3.4-0.8
		c0.9,0,1.5,0.2,2.1,0.5c0.5,0.3,1,0.7,1.3,1.3c0.3,0.5,0.5,1.2,0.7,1.8c0.1,0.7,0.2,1.4,0.2,2.2C285.3,67.9,285.3,76.6,285.3,76.6z
		"/>
	<path class="st0" d="M292.8,76.9c-0.7,0-1.3-0.1-1.9-0.3c-0.6-0.2-1.1-0.5-1.5-0.9s-0.8-0.9-1-1.4s-0.4-1.1-0.4-1.8
		c0-0.7,0.1-1.3,0.4-1.8s0.7-1,1.2-1.4s1.2-0.7,1.9-0.9c0.7-0.2,1.5-0.3,2.4-0.3c0.7,0,1.3,0.1,2,0.2s1.2,0.3,1.8,0.5v-1
		c0-1-0.3-1.9-0.9-2.5s-1.4-0.9-2.6-0.9c-0.8,0-1.5,0.1-2.2,0.4s-1.5,0.7-2.3,1.2l-0.9-1.9c1.8-1.2,3.7-1.8,5.7-1.8
		c1.9,0,3.5,0.5,4.6,1.5c1.1,1,1.6,2.4,1.6,4.3v5.1c0,0.6,0.3,1,0.8,1v2.5c-0.3,0.1-0.5,0.1-0.7,0.1s-0.4,0-0.6,0
		c-0.6,0-1-0.1-1.3-0.4s-0.5-0.7-0.6-1.1l-0.1-0.9c-0.6,0.8-1.4,1.5-2.3,1.9S293.9,76.9,292.8,76.9 M293.6,74.7c0.7,0,1.4-0.1,2-0.4
		s1.1-0.6,1.5-1.1c0.4-0.3,0.6-0.7,0.6-1v-1.9c-0.5-0.2-1-0.3-1.6-0.5c-0.6-0.1-1.1-0.2-1.7-0.2c-1.1,0-1.9,0.2-2.6,0.7
		s-1,1.1-1,1.8c0,0.7,0.3,1.3,0.8,1.8C292.1,74.4,292.8,74.7,293.6,74.7"/>
	<path class="st0" d="M304.6,56.8h3v15.7c0,0.5,0.1,0.9,0.4,1.2c0.3,0.3,0.7,0.4,1.1,0.4c0.2,0,0.4,0,0.7-0.1
		c0.3-0.1,0.5-0.2,0.7-0.2l0.4,2.3c-0.4,0.2-1,0.4-1.5,0.5c-0.6,0.1-1.1,0.2-1.6,0.2c-1,0-1.8-0.3-2.4-0.8c-0.6-0.6-0.9-1.4-0.9-2.4
		C304.6,73.6,304.6,56.8,304.6,56.8z"/>
	<path class="st0" d="M318.8,76.9c-1,0-1.8-0.2-2.7-0.6c-0.8-0.4-1.5-0.9-2.1-1.6s-1.1-1.4-1.4-2.3s-0.5-1.9-0.5-2.9
		s0.2-1.9,0.5-2.8s0.8-1.6,1.3-2.3c0.6-0.7,1.2-1.2,2-1.6c0.8-0.4,1.6-0.6,2.5-0.6c1.1,0,2.1,0.3,3,0.8c0.9,0.6,1.5,1.3,2,2.1v-8.3
		h3v16.3c0,0.3,0.1,0.6,0.2,0.7s0.3,0.2,0.6,0.2v2.5c-0.3,0.1-0.6,0.1-0.7,0.1c-0.2,0-0.3,0-0.5,0c-0.6,0-1.1-0.2-1.5-0.5
		s-0.6-0.7-0.6-1.2l-0.1-1.1c-0.5,0.9-1.2,1.6-2.1,2.1C320.9,76.6,319.9,76.9,318.8,76.9 M319.5,74.3c0.4,0,0.9-0.1,1.3-0.2
		s0.8-0.3,1.2-0.6c0.4-0.3,0.7-0.6,0.9-0.9c0.3-0.3,0.4-0.7,0.6-1.1v-3.7c-0.2-0.5-0.4-0.9-0.7-1.2c-0.3-0.4-0.6-0.7-1-1
		s-0.8-0.5-1.2-0.6c-0.4-0.1-0.9-0.2-1.3-0.2c-0.6,0-1.1,0.1-1.6,0.4s-0.9,0.6-1.3,1.1s-0.6,1-0.9,1.5c-0.2,0.6-0.3,1.2-0.3,1.8
		c0,0.7,0.1,1.3,0.3,1.8c0.2,0.6,0.5,1.1,0.9,1.5s0.9,0.8,1.4,1C318.4,74.2,318.9,74.3,319.5,74.3"/>
	<polygon class="st0" points="114.1,84.5 114.1,103.7 111,103.7 111,95.2 101.3,95.2 101.3,103.7 98.3,103.7 98.3,84.5 101.3,84.5 
		101.3,92.5 111,92.5 111,84.5 	"/>
	<path class="st0" d="M124.5,104c-1.1,0-2.1-0.2-3-0.6s-1.7-0.9-2.3-1.6c-0.6-0.7-1.1-1.4-1.5-2.3c-0.3-0.9-0.5-1.8-0.5-2.8
		s0.2-1.9,0.5-2.8s0.8-1.7,1.5-2.3c0.6-0.7,1.4-1.2,2.3-1.6s1.9-0.6,3-0.6s2.1,0.2,3,0.6c0.9,0.4,1.7,0.9,2.3,1.6s1.1,1.4,1.5,2.3
		c0.3,0.9,0.5,1.8,0.5,2.8s-0.2,1.9-0.5,2.8s-0.8,1.7-1.5,2.3c-0.6,0.7-1.4,1.2-2.3,1.6C126.6,103.8,125.6,104,124.5,104
		 M120.3,96.7c0,0.7,0.1,1.3,0.3,1.9c0.2,0.6,0.5,1.1,0.9,1.5s0.8,0.8,1.3,1s1.1,0.4,1.7,0.4s1.2-0.1,1.7-0.4c0.5-0.2,1-0.6,1.3-1
		c0.4-0.4,0.7-0.9,0.9-1.5s0.3-1.2,0.3-1.9c0-0.7-0.1-1.3-0.3-1.9s-0.5-1.1-0.9-1.5s-0.8-0.8-1.3-1s-1.1-0.4-1.7-0.4
		s-1.1,0.1-1.6,0.4s-1,0.6-1.3,1c-0.4,0.4-0.7,0.9-0.9,1.5C120.4,95.4,120.3,96,120.3,96.7"/>
	<path class="st0" d="M139.1,104c-1.5,0-2.6-0.5-3.4-1.4c-0.8-1-1.1-2.4-1.1-4.3v-8.7h3v8.1c0,2.5,0.9,3.8,2.7,3.8
		c0.8,0,1.7-0.3,2.4-0.8c0.8-0.5,1.3-1.3,1.8-2.3v-8.8h3v10.7c0,0.3,0.1,0.6,0.2,0.7c0.1,0.1,0.3,0.2,0.6,0.2v2.5
		c-0.3,0.1-0.6,0.1-0.8,0.1s-0.4,0-0.6,0c-0.5,0-1-0.1-1.4-0.4s-0.6-0.7-0.6-1.2l-0.1-1.4c-0.6,1-1.5,1.8-2.5,2.3
		C141.4,103.7,140.3,104,139.1,104"/>
	<path class="st0" d="M156.6,104c-1.1,0-2.3-0.2-3.4-0.6c-1.1-0.4-2.1-0.9-2.9-1.6l1.2-1.9c0.9,0.6,1.7,1.1,2.5,1.4s1.7,0.5,2.5,0.5
		c0.9,0,1.6-0.2,2.1-0.5s0.8-0.8,0.8-1.5c0-0.6-0.3-1-0.9-1.3c-0.6-0.3-1.5-0.6-2.7-0.9c-0.9-0.2-1.6-0.5-2.3-0.7
		c-0.6-0.2-1.2-0.5-1.5-0.8c-0.4-0.3-0.7-0.6-0.9-1s-0.3-0.8-0.3-1.4c0-0.7,0.1-1.4,0.4-1.9c0.3-0.6,0.7-1,1.2-1.4s1.1-0.7,1.7-0.9
		c0.7-0.2,1.4-0.3,2.2-0.3c1.1,0,2.1,0.2,3,0.5s1.7,0.8,2.5,1.4l-1.3,1.8c-1.3-1-2.7-1.6-4.2-1.6c-0.8,0-1.4,0.2-1.9,0.5
		s-0.8,0.8-0.8,1.5c0,0.3,0.1,0.5,0.2,0.7c0.1,0.2,0.3,0.4,0.5,0.5s0.6,0.3,0.9,0.4c0.4,0.1,0.9,0.2,1.4,0.4c1,0.2,1.8,0.5,2.5,0.7
		s1.3,0.5,1.7,0.8c0.5,0.3,0.8,0.7,1,1.1s0.3,0.9,0.3,1.5c0,1.4-0.5,2.4-1.5,3.2C159.8,103.6,158.4,104,156.6,104"/>
	<path class="st0" d="M171.6,104c-1.1,0-2.1-0.2-3-0.6s-1.7-0.9-2.3-1.6s-1.1-1.4-1.5-2.3s-0.5-1.8-0.5-2.8s0.2-1.9,0.5-2.8
		c0.4-0.9,0.9-1.7,1.5-2.4c0.6-0.7,1.4-1.2,2.3-1.6c0.9-0.4,1.9-0.6,3-0.6s2.1,0.2,3,0.6s1.7,0.9,2.3,1.6s1.1,1.4,1.4,2.3
		c0.3,0.9,0.5,1.8,0.5,2.7c0,0.2,0,0.4,0,0.6s0,0.3-0.1,0.5h-11.4c0.1,0.6,0.2,1.2,0.4,1.7s0.6,0.9,1,1.3s0.8,0.7,1.3,0.9
		c0.5,0.2,1,0.3,1.6,0.3c0.4,0,0.8,0,1.2-0.1s0.7-0.2,1.1-0.4s0.6-0.4,0.9-0.7c0.3-0.3,0.5-0.6,0.6-0.9l2.5,0.7
		c-0.5,1.1-1.3,1.9-2.4,2.6C174.5,103.6,173.1,104,171.6,104 M175.9,95.5c-0.1-0.6-0.2-1.1-0.4-1.7c-0.2-0.5-0.6-0.9-0.9-1.3
		c-0.4-0.4-0.8-0.6-1.3-0.8c-0.5-0.2-1-0.3-1.6-0.3s-1.1,0.1-1.6,0.3c-0.5,0.2-0.9,0.5-1.3,0.8c-0.4,0.3-0.7,0.8-0.9,1.3
		s-0.4,1.1-0.4,1.7H175.9z"/>
	<path class="st0" d="M187.7,93.9c0-1.2,0.2-2.3,0.6-3.5c0.4-1.1,1-2.2,1.8-3.1s1.8-1.6,2.9-2.2c1.2-0.6,2.5-0.8,3.9-0.8
		c1.8,0,3.3,0.4,4.5,1.2c1.2,0.8,2.2,1.8,2.8,3l-2.4,1.6c-0.3-0.6-0.6-1.1-1-1.5s-0.8-0.7-1.2-0.9c-0.4-0.2-0.9-0.4-1.4-0.5
		s-1-0.1-1.4-0.1c-1,0-1.9,0.2-2.7,0.6s-1.4,0.9-1.9,1.6s-0.9,1.4-1.2,2.3c-0.3,0.8-0.4,1.7-0.4,2.5c0,0.9,0.2,1.8,0.5,2.7
		c0.3,0.9,0.7,1.6,1.3,2.3c0.5,0.6,1.2,1.2,2,1.6s1.6,0.6,2.5,0.6c0.5,0,1-0.1,1.4-0.2c0.5-0.1,1-0.3,1.4-0.6c0.5-0.3,0.9-0.6,1.3-1
		c0.4-0.4,0.7-0.9,1-1.4l2.5,1.4c-0.3,0.7-0.7,1.4-1.3,1.9c-0.6,0.6-1.2,1-1.9,1.4s-1.4,0.7-2.2,0.9s-1.6,0.3-2.3,0.3
		c-1.4,0-2.6-0.3-3.7-0.9c-1.1-0.6-2.1-1.3-2.9-2.3c-0.8-0.9-1.4-2-1.9-3.2C188,96.4,187.7,95.2,187.7,93.9"/>
	<path class="st0" d="M220.1,103.7h-3v-7.9c0-1.3-0.2-2.3-0.7-2.9s-1.1-0.9-2-0.9c-0.4,0-0.8,0.1-1.2,0.2c-0.4,0.2-0.8,0.4-1.2,0.7
		c-0.4,0.3-0.7,0.7-1,1.1s-0.5,0.9-0.7,1.3v8.4h-3V83.9h3v8.5c0.5-1,1.3-1.7,2.2-2.3c0.9-0.5,1.9-0.8,3-0.8c0.9,0,1.6,0.2,2.2,0.5
		c0.6,0.3,1,0.7,1.4,1.3c0.3,0.5,0.6,1.1,0.7,1.8c0.1,0.7,0.2,1.4,0.2,2.2C220.1,95.1,220.1,103.7,220.1,103.7z"/>
	<path class="st0" d="M227.6,104c-0.7,0-1.3-0.1-1.9-0.3c-0.6-0.2-1.1-0.5-1.5-0.9s-0.8-0.9-1-1.4s-0.4-1.1-0.4-1.8
		c0-0.7,0.1-1.3,0.4-1.8c0.3-0.5,0.7-1,1.2-1.4s1.2-0.7,1.9-0.9s1.5-0.3,2.4-0.3c0.7,0,1.3,0.1,2,0.2c0.6,0.1,1.2,0.3,1.8,0.5v-1
		c0-1-0.3-1.9-0.9-2.4c-0.6-0.6-1.5-0.9-2.6-0.9c-0.8,0-1.5,0.1-2.2,0.4s-1.5,0.7-2.3,1.2l-0.9-1.9c1.8-1.2,3.7-1.8,5.7-1.8
		s3.5,0.5,4.6,1.5s1.6,2.4,1.6,4.3v5.1c0,0.6,0.3,1,0.8,1v2.5c-0.3,0.1-0.5,0.1-0.8,0.1c-0.2,0-0.4,0-0.6,0c-0.6,0-1-0.1-1.3-0.4
		s-0.5-0.7-0.6-1.1l-0.1-0.9c-0.6,0.8-1.4,1.5-2.3,1.9C229.7,103.8,228.7,104,227.6,104 M228.4,101.8c0.7,0,1.4-0.1,2-0.4
		s1.2-0.6,1.5-1.1c0.4-0.3,0.6-0.7,0.6-1v-1.9c-0.5-0.2-1-0.3-1.6-0.5c-0.6-0.1-1.1-0.2-1.7-0.2c-1.1,0-1.9,0.2-2.6,0.7
		c-0.7,0.5-1,1.1-1,1.8c0,0.7,0.3,1.3,0.8,1.8S227.6,101.8,228.4,101.8"/>
	<path class="st0" d="M247.4,92.1c-1.2,0-2.2,0.3-3.1,0.8c-0.9,0.5-1.5,1.2-1.9,2.1v8.7h-3V89.5h2.8v3.2c0.5-1,1.1-1.8,1.9-2.3
		c0.8-0.6,1.6-0.9,2.5-1h0.4c0.1,0,0.2,0,0.3,0L247.4,92.1L247.4,92.1z"/>
	<path class="st0" d="M249.8,83.9h3v3.3h-3V83.9z M249.8,89.5h3v14.2h-3V89.5z"/>
	<path class="st0" d="M264.5,103c-0.4,0.2-0.9,0.4-1.6,0.6s-1.4,0.3-2.1,0.3c-0.5,0-0.9-0.1-1.3-0.2s-0.8-0.3-1.1-0.6
		c-0.3-0.3-0.6-0.6-0.7-1c-0.2-0.4-0.3-0.9-0.3-1.5v-8.9h-1.9v-2.3h1.9v-4.7h3v4.7h3.1v2.3h-3.1v7.9c0,0.5,0.2,0.9,0.5,1.1
		s0.6,0.3,1,0.3s0.8-0.1,1.2-0.2s0.7-0.3,0.8-0.3L264.5,103z"/>
	<path class="st0" d="M266.9,83.9h3v3.3h-3V83.9z M266.9,89.5h3v14.2h-3V89.5z"/>
	<path class="st0" d="M280.1,104c-1.1,0-2.1-0.2-3-0.6s-1.7-0.9-2.3-1.6s-1.1-1.4-1.5-2.3s-0.5-1.8-0.5-2.8s0.2-1.9,0.5-2.8
		s0.9-1.7,1.5-2.4c0.6-0.7,1.4-1.2,2.3-1.6s1.9-0.6,3-0.6s2.1,0.2,3,0.6s1.7,0.9,2.3,1.6c0.6,0.7,1.1,1.4,1.4,2.3s0.5,1.8,0.5,2.7
		c0,0.2,0,0.4,0,0.6s0,0.3-0.1,0.5h-11.4c0.1,0.6,0.2,1.2,0.5,1.7c0.2,0.5,0.6,0.9,0.9,1.3c0.4,0.4,0.8,0.7,1.3,0.9
		c0.5,0.2,1,0.3,1.6,0.3c0.4,0,0.8,0,1.2-0.1c0.4-0.1,0.7-0.2,1.1-0.4s0.6-0.4,0.9-0.7c0.3-0.3,0.4-0.6,0.6-0.9l2.5,0.7
		c-0.5,1.1-1.3,1.9-2.4,2.6C282.9,103.6,281.6,104,280.1,104 M284.4,95.5c-0.1-0.6-0.2-1.1-0.4-1.7c-0.2-0.5-0.6-0.9-0.9-1.3
		c-0.4-0.4-0.8-0.6-1.3-0.8c-0.5-0.2-1-0.3-1.6-0.3s-1.1,0.1-1.6,0.3c-0.5,0.2-0.9,0.5-1.3,0.8s-0.7,0.8-0.9,1.3
		c-0.2,0.5-0.4,1.1-0.4,1.7H284.4z"/>
	<path class="st0" d="M295.2,104c-1.1,0-2.3-0.2-3.4-0.6s-2.1-0.9-2.9-1.6l1.2-1.9c0.9,0.6,1.7,1.1,2.5,1.4s1.7,0.5,2.5,0.5
		c0.9,0,1.6-0.2,2.1-0.5s0.8-0.8,0.8-1.5c0-0.6-0.3-1-0.9-1.3s-1.5-0.6-2.7-0.9c-0.9-0.2-1.6-0.5-2.3-0.7c-0.6-0.2-1.2-0.5-1.5-0.8
		c-0.4-0.3-0.7-0.6-0.9-1c-0.2-0.4-0.3-0.8-0.3-1.4c0-0.7,0.1-1.4,0.4-1.9c0.3-0.6,0.7-1,1.2-1.4s1.1-0.7,1.8-0.9
		c0.7-0.2,1.4-0.3,2.2-0.3c1.1,0,2.1,0.2,3,0.5s1.7,0.8,2.5,1.4l-1.3,1.8c-1.3-1-2.7-1.6-4.2-1.6c-0.8,0-1.4,0.2-1.9,0.5
		s-0.8,0.8-0.8,1.5c0,0.3,0.1,0.5,0.2,0.7s0.3,0.4,0.5,0.5s0.6,0.3,1,0.4s0.9,0.2,1.4,0.4c1,0.2,1.8,0.5,2.5,0.7s1.3,0.5,1.7,0.8
		c0.5,0.3,0.8,0.7,1,1.1s0.3,0.9,0.3,1.5c0,1.4-0.5,2.4-1.5,3.2C298.4,103.6,297,104,295.2,104"/>
	<path class="st0" d="M304.7,88.5c1.3,0,2.4,1.1,2.4,2.4c0,1.4-1.1,2.5-2.4,2.5s-2.4-1.1-2.4-2.5C302.3,89.6,303.4,88.5,304.7,88.5
		L304.7,88.5z M304.7,88.9c-1.1,0-2,0.9-2,2.1s0.9,2.1,2,2.1s2-0.9,2-2.1S305.8,88.9,304.7,88.9L304.7,88.9z M304.3,92.4h-0.4v-2.7
		c0.2,0,0.4-0.1,0.8-0.1s0.7,0.1,0.8,0.2c0.2,0.1,0.3,0.3,0.3,0.6c0,0.4-0.2,0.6-0.5,0.7l0,0c0.2,0,0.4,0.3,0.5,0.7
		c0.1,0.4,0.1,0.6,0.2,0.7h-0.5c-0.1-0.1-0.1-0.3-0.2-0.7c-0.1-0.3-0.2-0.5-0.6-0.5h-0.3L304.3,92.4L304.3,92.4z M304.3,90.9h0.3
		c0.4,0,0.7-0.1,0.7-0.5c0-0.2-0.2-0.5-0.7-0.5c-0.1,0-0.2,0-0.3,0V90.9z"/>
</g>
<g>
	<path class="st1" d="M106.6,116c-0.1-0.1-0.3-0.2-0.5-0.4c-0.2-0.2-0.5-0.3-0.9-0.5c-0.3-0.1-0.7-0.3-1.1-0.4s-0.8-0.2-1.2-0.2
		c-0.7,0-1.3,0.1-1.7,0.4c-0.4,0.3-0.5,0.7-0.5,1.1c0,0.3,0.1,0.5,0.2,0.7s0.3,0.4,0.6,0.5c0.3,0.1,0.6,0.3,1,0.4s0.9,0.2,1.4,0.4
		c0.7,0.2,1.3,0.4,1.8,0.6c0.6,0.2,1,0.5,1.4,0.8s0.7,0.7,0.9,1.1c0.2,0.4,0.3,1,0.3,1.6c0,0.7-0.1,1.4-0.4,1.9s-0.7,1-1.1,1.3
		c-0.5,0.3-1,0.6-1.6,0.7s-1.3,0.2-1.9,0.2c-1,0-2.1-0.2-3.1-0.5s-1.9-0.8-2.7-1.3l1.2-2.3c0.1,0.1,0.3,0.3,0.6,0.5
		c0.3,0.2,0.7,0.4,1.1,0.6s0.9,0.3,1.4,0.5s1,0.2,1.6,0.2c1.5,0,2.2-0.5,2.2-1.4c0-0.3-0.1-0.6-0.3-0.8c-0.2-0.2-0.4-0.4-0.7-0.5
		c-0.3-0.2-0.7-0.3-1.1-0.4s-0.9-0.3-1.5-0.4c-0.7-0.2-1.2-0.4-1.7-0.6s-0.9-0.5-1.2-0.8c-0.3-0.3-0.6-0.6-0.7-1
		c-0.2-0.4-0.2-0.8-0.2-1.4c0-0.7,0.1-1.3,0.4-1.9c0.3-0.5,0.6-1,1.1-1.4s1-0.6,1.6-0.8c0.6-0.2,1.3-0.3,2-0.3c1,0,1.9,0.2,2.7,0.5
		s1.5,0.7,2.1,1.1L106.6,116z"/>
	<path class="st1" d="M114.7,126.4c-0.8,0-1.6-0.1-2.2-0.4c-0.7-0.3-1.2-0.7-1.7-1.2s-0.8-1-1.1-1.7c-0.2-0.6-0.4-1.3-0.4-2
		s0.1-1.4,0.4-2c0.2-0.6,0.6-1.2,1.1-1.7s1-0.9,1.7-1.2c0.7-0.3,1.4-0.4,2.2-0.4s1.6,0.1,2.2,0.4s1.2,0.7,1.7,1.2s0.8,1,1.1,1.7
		c0.2,0.6,0.4,1.3,0.4,2s-0.1,1.4-0.4,2s-0.6,1.2-1.1,1.7s-1,0.9-1.7,1.2C116.3,126.2,115.6,126.4,114.7,126.4z M112.1,121.1
		c0,0.5,0.1,0.9,0.2,1.2c0.1,0.4,0.3,0.7,0.6,1c0.2,0.3,0.5,0.5,0.8,0.6s0.7,0.2,1.1,0.2s0.7-0.1,1.1-0.2c0.3-0.1,0.6-0.4,0.8-0.6
		c0.2-0.3,0.4-0.6,0.6-1c0.1-0.4,0.2-0.8,0.2-1.2c0-0.4-0.1-0.9-0.2-1.2c-0.1-0.4-0.3-0.7-0.6-1c-0.2-0.3-0.5-0.5-0.8-0.6
		s-0.7-0.2-1.1-0.2s-0.7,0.1-1.1,0.2c-0.3,0.2-0.6,0.4-0.8,0.6c-0.2,0.3-0.4,0.6-0.6,1S112.1,120.7,112.1,121.1z"/>
	<path class="st1" d="M124.9,126.4c-1.1,0-1.9-0.3-2.4-1s-0.8-1.7-0.8-3V116h2.6v5.8c0,1.6,0.6,2.4,1.7,2.4c0.5,0,1-0.2,1.5-0.5
		s0.9-0.8,1.2-1.4V116h2.6v7.2c0,0.3,0,0.5,0.1,0.6s0.3,0.2,0.5,0.2v2.2c-0.3,0.1-0.5,0.1-0.7,0.1s-0.3,0-0.5,0
		c-0.5,0-0.8-0.1-1.1-0.3s-0.5-0.5-0.5-0.9l-0.1-0.8c-0.5,0.7-1,1.2-1.8,1.6C126.6,126.2,125.8,126.4,124.9,126.4z"/>
	<path class="st1" d="M140,125.7c-0.4,0.2-0.8,0.3-1.3,0.5s-1,0.2-1.6,0.2c-0.4,0-0.7,0-1-0.1s-0.6-0.2-0.8-0.4
		c-0.2-0.2-0.4-0.5-0.6-0.8c-0.1-0.3-0.2-0.7-0.2-1.2V118h-1.3v-2h1.3v-3.3h2.6v3.3h2.1v2h-2.1v5c0,0.4,0.1,0.6,0.3,0.8
		c0.2,0.1,0.4,0.2,0.7,0.2s0.5,0,0.8-0.1s0.5-0.2,0.6-0.2L140,125.7z"/>
	<path class="st1" d="M150.8,126.2h-2.6v-5.7c0-0.8-0.1-1.4-0.4-1.8c-0.3-0.4-0.7-0.6-1.3-0.6c-0.2,0-0.5,0.1-0.7,0.2
		c-0.3,0.1-0.5,0.2-0.7,0.4c-0.2,0.2-0.4,0.4-0.6,0.7c-0.2,0.3-0.3,0.5-0.4,0.9v6h-2.6V112h2.6v5.9c0.4-0.7,0.9-1.2,1.5-1.5
		c0.6-0.4,1.4-0.5,2.1-0.5c0.7,0,1.2,0.1,1.6,0.3c0.4,0.2,0.7,0.5,1,0.9c0.2,0.4,0.4,0.8,0.5,1.3s0.1,1,0.1,1.5v6.3H150.8z"/>
	<path class="st1" d="M157.2,119.2c0-0.8,0.2-1.7,0.5-2.5s0.8-1.6,1.3-2.2c0.6-0.6,1.3-1.2,2.1-1.6s1.8-0.6,2.9-0.6
		c1.3,0,2.4,0.3,3.3,0.8c0.9,0.6,1.6,1.3,2.1,2.2l-2.1,1.4c-0.2-0.4-0.4-0.7-0.7-1s-0.5-0.5-0.8-0.6c-0.3-0.2-0.6-0.3-0.9-0.3
		c-0.3-0.1-0.6-0.1-1-0.1c-0.7,0-1.3,0.1-1.8,0.4s-0.9,0.6-1.2,1.1c-0.3,0.4-0.6,0.9-0.8,1.5s-0.3,1.1-0.3,1.6
		c0,0.6,0.1,1.2,0.3,1.8c0.2,0.6,0.5,1.1,0.8,1.5c0.4,0.4,0.8,0.8,1.3,1s1,0.4,1.6,0.4c0.3,0,0.6,0,1-0.1c0.3-0.1,0.7-0.2,1-0.4
		c0.3-0.2,0.6-0.4,0.8-0.7c0.3-0.3,0.5-0.6,0.6-1l2.2,1.3c-0.2,0.5-0.5,1-0.9,1.4s-0.9,0.7-1.4,1s-1.1,0.5-1.6,0.6
		c-0.6,0.1-1.2,0.2-1.7,0.2c-1,0-1.9-0.2-2.7-0.6s-1.5-1-2.1-1.6c-0.6-0.7-1.1-1.4-1.4-2.3S157.2,120.1,157.2,119.2z"/>
	<path class="st1" d="M175.9,126.4c-0.8,0-1.6-0.1-2.2-0.4c-0.7-0.3-1.2-0.7-1.7-1.1s-0.8-1-1.1-1.7c-0.3-0.6-0.4-1.3-0.4-2
		s0.1-1.4,0.4-2.1c0.2-0.6,0.6-1.2,1.1-1.7s1-0.9,1.7-1.2c0.7-0.3,1.4-0.4,2.2-0.4s1.6,0.1,2.2,0.4s1.2,0.7,1.7,1.1s0.8,1,1.1,1.7
		c0.2,0.6,0.4,1.3,0.4,2c0,0.2,0,0.3,0,0.5s0,0.3,0,0.4h-7.9c0,0.4,0.1,0.8,0.3,1.1c0.2,0.3,0.4,0.6,0.6,0.8
		c0.2,0.2,0.5,0.4,0.8,0.5s0.6,0.2,1,0.2c0.5,0,1-0.1,1.5-0.4s0.8-0.6,0.9-1l2.2,0.6c-0.4,0.8-1,1.4-1.8,1.9
		C178,126.1,177,126.4,175.9,126.4z M178.5,120.2c-0.1-0.8-0.3-1.4-0.8-1.8s-1.1-0.7-1.8-0.7c-0.4,0-0.7,0.1-1,0.2s-0.6,0.3-0.8,0.5
		s-0.4,0.5-0.6,0.8c-0.1,0.3-0.2,0.7-0.3,1H178.5z"/>
	<path class="st1" d="M192.3,126.2h-2.6v-5.7c0-0.8-0.1-1.4-0.4-1.8c-0.3-0.4-0.7-0.6-1.2-0.6c-0.3,0-0.5,0.1-0.8,0.2
		s-0.5,0.2-0.8,0.4c-0.2,0.2-0.5,0.4-0.7,0.7c-0.2,0.3-0.3,0.5-0.4,0.9v6h-2.6V116h2.4v1.9c0.4-0.6,0.9-1.2,1.6-1.5
		c0.7-0.4,1.5-0.5,2.4-0.5c0.6,0,1.2,0.1,1.6,0.4c0.4,0.2,0.7,0.5,0.9,0.9s0.4,0.8,0.5,1.3s0.1,1,0.1,1.5V126.2z"/>
	<path class="st1" d="M200.6,125.7c-0.4,0.2-0.8,0.3-1.3,0.5s-1,0.2-1.6,0.2c-0.4,0-0.7,0-1-0.1s-0.6-0.2-0.8-0.4
		c-0.2-0.2-0.4-0.5-0.6-0.8c-0.1-0.3-0.2-0.7-0.2-1.2V118h-1.3v-2h1.3v-3.3h2.6v3.3h2.1v2h-2.1v5c0,0.4,0.1,0.6,0.3,0.8
		c0.2,0.1,0.4,0.2,0.7,0.2s0.5,0,0.8-0.1s0.5-0.2,0.6-0.2L200.6,125.7z"/>
	<path class="st1" d="M208.1,118.2c-0.8,0-1.5,0.2-2.1,0.5s-1.1,0.7-1.3,1.3v6.2H202V116h2.4v2.2c0.2-0.4,0.4-0.7,0.6-0.9
		s0.5-0.5,0.8-0.7s0.6-0.4,0.9-0.5s0.6-0.2,0.8-0.2c0.1,0,0.2,0,0.3,0s0.1,0,0.2,0v2.3H208.1z"/>
	<path class="st1" d="M212.2,126.4c-0.5,0-1-0.1-1.4-0.2c-0.4-0.2-0.8-0.4-1.1-0.7c-0.3-0.3-0.6-0.6-0.7-1c-0.2-0.4-0.3-0.8-0.3-1.3
		s0.1-0.9,0.3-1.3s0.5-0.8,0.9-1c0.4-0.3,0.8-0.5,1.4-0.7c0.5-0.2,1.1-0.2,1.8-0.2c0.5,0,0.9,0,1.3,0.1c0.4,0.1,0.8,0.2,1.2,0.3
		v-0.6c0-0.7-0.2-1.2-0.6-1.6c-0.4-0.4-1-0.5-1.7-0.5c-0.5,0-1.1,0.1-1.6,0.3s-1.1,0.5-1.6,0.9l-0.8-1.7c1.3-0.9,2.7-1.3,4.2-1.3
		s2.6,0.4,3.4,1.1c0.8,0.7,1.2,1.8,1.2,3.1v3.2c0,0.3,0,0.5,0.1,0.6s0.3,0.2,0.5,0.2v2.2c-0.4,0.1-0.8,0.1-1.1,0.1
		c-0.5,0-0.9-0.1-1.1-0.3c-0.3-0.2-0.4-0.5-0.5-0.9l-0.1-0.6c-0.5,0.6-1,1.1-1.7,1.4C213.6,126.2,212.9,126.4,212.2,126.4z
		 M212.9,124.5c0.4,0,0.9-0.1,1.3-0.2c0.4-0.2,0.7-0.4,0.9-0.6c0.3-0.2,0.4-0.5,0.4-0.7v-1.2c-0.3-0.1-0.6-0.2-1-0.3
		c-0.4-0.1-0.7-0.1-1.1-0.1c-0.7,0-1.2,0.2-1.7,0.5s-0.6,0.7-0.6,1.2c0,0.4,0.2,0.8,0.5,1.1S212.4,124.5,212.9,124.5z"/>
	<path class="st1" d="M220.5,112h2.6v10.9c0,0.4,0.1,0.7,0.3,0.9c0.2,0.2,0.4,0.3,0.8,0.3c0.2,0,0.3,0,0.5-0.1s0.4-0.1,0.5-0.2
		l0.4,2c-0.4,0.2-0.8,0.3-1.2,0.4s-0.9,0.1-1.3,0.1c-0.8,0-1.5-0.2-1.9-0.7s-0.7-1.1-0.7-1.9L220.5,112L220.5,112z"/>
	<path class="st1" d="M237,126.3c-1,0-1.9-0.2-2.8-0.6c-0.8-0.4-1.5-0.9-2.1-1.6s-1-1.4-1.4-2.3c-0.3-0.8-0.5-1.7-0.5-2.6
		s0.2-1.8,0.5-2.6s0.8-1.6,1.4-2.2c0.6-0.6,1.3-1.2,2.2-1.5c0.8-0.4,1.7-0.6,2.7-0.6s1.9,0.2,2.7,0.6s1.5,0.9,2.1,1.6s1,1.4,1.4,2.3
		c0.3,0.8,0.5,1.7,0.5,2.6s-0.2,1.8-0.5,2.6c-0.3,0.8-0.8,1.6-1.4,2.2c-0.6,0.6-1.3,1.2-2.1,1.5C238.8,126.1,237.9,126.3,237,126.3z
		 M233,119.3c0,0.6,0.1,1.2,0.3,1.7c0.2,0.6,0.4,1.1,0.8,1.5c0.3,0.4,0.8,0.8,1.3,1c0.5,0.3,1.1,0.4,1.7,0.4c0.6,0,1.2-0.1,1.7-0.4
		s0.9-0.6,1.3-1.1c0.3-0.4,0.6-0.9,0.8-1.5s0.3-1.1,0.3-1.7s-0.1-1.2-0.3-1.7c-0.2-0.6-0.5-1.1-0.8-1.5s-0.8-0.8-1.3-1
		s-1.1-0.4-1.7-0.4c-0.6,0-1.2,0.1-1.7,0.4s-0.9,0.6-1.3,1.1s-0.6,0.9-0.8,1.5C233,118.1,233,118.7,233,119.3z"/>
	<path class="st1" d="M255,126.2h-2.6v-5.7c0-0.8-0.1-1.4-0.4-1.8c-0.3-0.4-0.7-0.6-1.2-0.6c-0.3,0-0.5,0.1-0.8,0.2
		s-0.5,0.2-0.8,0.4c-0.2,0.2-0.5,0.4-0.7,0.7c-0.2,0.3-0.3,0.5-0.4,0.9v6h-2.6V116h2.4v1.9c0.4-0.6,0.9-1.2,1.6-1.5
		c0.7-0.4,1.5-0.5,2.4-0.5c0.6,0,1.2,0.1,1.6,0.4c0.4,0.2,0.7,0.5,0.9,0.9s0.4,0.8,0.5,1.3s0.1,1,0.1,1.5V126.2z"/>
	<path class="st1" d="M263.3,125.7c-0.4,0.2-0.8,0.3-1.3,0.5s-1,0.2-1.6,0.2c-0.4,0-0.7,0-1-0.1s-0.6-0.2-0.8-0.4
		c-0.2-0.2-0.4-0.5-0.6-0.8c-0.1-0.3-0.2-0.7-0.2-1.2V118h-1.3v-2h1.3v-3.3h2.6v3.3h2.1v2h-2.1v5c0,0.4,0.1,0.6,0.3,0.8
		c0.2,0.1,0.4,0.2,0.7,0.2c0.3,0,0.5,0,0.8-0.1s0.5-0.2,0.6-0.2L263.3,125.7z"/>
	<path class="st1" d="M267.5,126.4c-0.5,0-1-0.1-1.4-0.2c-0.4-0.2-0.8-0.4-1.1-0.7c-0.3-0.3-0.6-0.6-0.7-1c-0.2-0.4-0.3-0.8-0.3-1.3
		s0.1-0.9,0.3-1.3c0.2-0.4,0.5-0.8,0.9-1c0.4-0.3,0.8-0.5,1.4-0.7c0.5-0.2,1.1-0.2,1.8-0.2c0.5,0,0.9,0,1.3,0.1s0.8,0.2,1.2,0.3
		v-0.6c0-0.7-0.2-1.2-0.6-1.6s-1-0.5-1.7-0.5c-0.5,0-1.1,0.1-1.6,0.3s-1.1,0.5-1.6,0.9l-0.8-1.7c1.3-0.9,2.7-1.3,4.2-1.3
		s2.6,0.4,3.4,1.1s1.2,1.8,1.2,3.1v3.2c0,0.3,0,0.5,0.1,0.6s0.3,0.2,0.5,0.2v2.2c-0.4,0.1-0.8,0.1-1.1,0.1c-0.5,0-0.9-0.1-1.1-0.3
		c-0.3-0.2-0.4-0.5-0.5-0.9l-0.1-0.6c-0.5,0.6-1,1.1-1.7,1.4C268.9,126.2,268.2,126.4,267.5,126.4z M268.2,124.5
		c0.4,0,0.9-0.1,1.3-0.2c0.4-0.2,0.7-0.4,0.9-0.6c0.3-0.2,0.4-0.5,0.4-0.7v-1.2c-0.3-0.1-0.6-0.2-1-0.3c-0.4-0.1-0.7-0.1-1.1-0.1
		c-0.7,0-1.2,0.2-1.7,0.5s-0.6,0.7-0.6,1.2c0,0.4,0.2,0.8,0.5,1.1S267.7,124.5,268.2,124.5z"/>
	<path class="st1" d="M282,118.2c-0.8,0-1.5,0.2-2.1,0.5s-1.1,0.7-1.3,1.3v6.2H276V116h2.4v2.2c0.2-0.4,0.4-0.7,0.6-0.9
		s0.5-0.5,0.8-0.7s0.6-0.4,0.9-0.5s0.6-0.2,0.8-0.2c0.1,0,0.2,0,0.3,0s0.1,0,0.2,0L282,118.2L282,118.2z"/>
	<path class="st1" d="M283.4,114.6V112h2.6v2.6H283.4z M283.4,126.2V116h2.6v10.2H283.4z"/>
	<path class="st1" d="M293.1,126.4c-0.8,0-1.6-0.1-2.2-0.4c-0.7-0.3-1.2-0.7-1.7-1.2s-0.8-1-1.1-1.7c-0.2-0.6-0.4-1.3-0.4-2
		s0.1-1.4,0.4-2c0.2-0.6,0.6-1.2,1.1-1.7s1-0.9,1.7-1.2c0.7-0.3,1.4-0.4,2.2-0.4s1.6,0.1,2.2,0.4s1.2,0.7,1.7,1.2s0.8,1,1.1,1.7
		c0.2,0.6,0.4,1.3,0.4,2s-0.1,1.4-0.4,2s-0.6,1.2-1.1,1.7s-1,0.9-1.7,1.2C294.7,126.2,293.9,126.4,293.1,126.4z M290.4,121.1
		c0,0.5,0.1,0.9,0.2,1.2c0.1,0.4,0.3,0.7,0.6,1c0.2,0.3,0.5,0.5,0.8,0.6s0.7,0.2,1.1,0.2s0.7-0.1,1.1-0.2c0.3-0.1,0.6-0.4,0.8-0.6
		c0.2-0.3,0.4-0.6,0.6-1c0.1-0.4,0.2-0.8,0.2-1.2c0-0.4-0.1-0.9-0.2-1.2c-0.1-0.4-0.3-0.7-0.6-1c-0.2-0.3-0.5-0.5-0.8-0.6
		s-0.7-0.2-1.1-0.2s-0.7,0.1-1.1,0.2c-0.3,0.2-0.6,0.4-0.8,0.6c-0.2,0.3-0.4,0.6-0.6,1C290.5,120.3,290.4,120.7,290.4,121.1z"/>
</g>
<path class="st2" d="M82.7,7.5l0.2,3.9c-1.2,0-0.3,1.5-1.3,1.6c-1.8,5.4-7.3,4.7-9.4,9.7C71,24.4,69.9,26,70,28.1l-1,0.8
	c0.2,0.2,0.5,0.3,0.8,0.3v1h-1.8c-1.3-4,2.5-7.9,0.8-12.1c-2.8-3.6-9-6.6-6-11.8c0.7,0.2,1.2-0.6,1.3-1c0-0.2-0.1-0.4-0.3-0.5
	C65.1,2.6,68,3.2,70,3c0.7,0.1,1.3,0.8,1.9,1.3c1.5-0.9,2-2.4,4.2-1.8L76.6,2C79.1,3.2,82.8,3.8,82.7,7.5z"/>
<path class="st3" d="M80.2,6.8c0.2,1.5,0.3,3.7-0.5,5.3c-0.4,0.5-1.9,0.8-1.9,1.8h-0.5l-6.1,5.5c-0.4-4-4.1-4.9-5.8-8.2
	c-1.5-0.3-1.2-2-0.8-2.9c0.7-1.3,1.7-2.3,2.9-3.1c1.6-0.6,3.1,0.7,3.4,2.4c1.6,0.3,1.3,2.9,2.9,2.1c0.9-0.8,0.6-1.4,0.3-2.4
	c-0.4-0.5-1.1-1-0.5-1.8C75.5,4.3,79.5,4,80.2,6.8L80.2,6.8z"/>
<path class="st4" d="M45.3,23.3c1.1,3.2,4.5,5.1,6.9,7.2c3.3,2.3,6.1,4.7,9.2,6.9c2.3-2.5,0.7-7,2.8-9.8c1.5-1.1,2.6,1.2,4.1,2.1
	c1.5-0.3,3.6,0.6,4.4-0.8c0.5,0.2,1.3,0.8,1.3,1.3c-3.9,2.8-2.9,8.5-4.9,12.1c0.3,1.3-0.6,2-0.3,3.3c3.6,4.4,8.7,7.4,13.1,11
	c0.8-0.3,1.3,0.5,1.5,1c-0.4-0.1-0.5,0.4-1,0.3c-1.7,5.4-0.9,10.5-2.3,15.4c1.2,0.7,0,1.7,0,2.6c1,5.7-2,11.5,0.5,17.1
	c0.3,1.1-0.6,1.9-0.3,2.6c-0.5,3,1,7.7,0,10.7c0.2,1,0.2,2.1-0.3,3.1c0.3,4.8-0.2,8.7-0.3,13c0.2,0.8,1.2,1.5,1.8,0.8
	c0.2,0.6-1,1.7-0.8,2.6c-4,0.1-8-0.2-12-0.8c-10.5,1.1-22.1,2.5-32-0.2c-8.7,0.7-16.6,1-25.1-0.3c-0.5,1-1.7,0.3-2.6,0.5
	c-0.8-1.3-1.7,0.8-2.6-0.8c1.7-3.3-0.8-6.5,0.8-10c0.3-7.6,0.3-16,1-23.9h0.3c0.1-5.3,1.8-9.3,1.3-14.6c0.6-4.5,0.1-8.9-0.5-13.6
	c-0.5-0.8-2-0.2-1.8-1.5c-0.4-1.6,2.6-2,2-4.1c0.4-0.5,1.2-0.2,1.8-0.3c1.2-2.3,3.3-3.8,4.9-5.7c3.1-1.9,4.1-5.3,7.5-6.9
	c5.4-5.5,12.2-9.5,16.4-15.8c1.3-1,2.3-2.5,2.6-4.1c-1.7-0.2-1-1.4-0.8-2.6h1.8c0,0.2,0.1,0.4,0.3,0.5c1.3,0.1,1.4-2,3.1-1.6
	L45.3,23.3z"/>
<path class="st3" d="M46.3,28.2c2.2,1.2,3.6,3.6,6.2,4.4c0,1,1.3,1.6,1.8,2c1.3,1.7,3.4,2.8,4.4,4.1c3.6,2.4,5.6,5.3,7.5,8.7
	c4.8,3.2,8.1,7.3,12.8,10.2c-0.4,2.8-0.4,5.6,0,8.4c-0.6,0.5,0.1,2.1-0.5,2.8c-0.6,0.8-1.1,2.4-0.5,3.6h-0.5c0.2,3.4,0,7.9-1,10.7
	c0.7,2.5-0.4,5.2,1,7.7c0.2,10.2-0.1,20.7-0.8,31.3c-0.4,0.6-1.6-0.3-1.6,0.8h-0.6c-0.8-1.6-2.1-0.2-3.6-0.8
	c-4.9,0.4-9.7,1.7-15.1,1.5c-4.7,0.2-9.4-0.1-14-0.8v-0.3c-3.5-1-7.5-0.3-11,0c-4.3,1.2-9.1-0.2-13.9,0.3v-0.3
	c-1.1-0.4-2.2-0.4-3.3,0v0.3c-0.2-0.8-1.3-0.4-2-0.5c0.2,0.5-1.4-0.1-2.1-0.2c0.2-15.9,1.5-34.2,2.8-50.5c-1.1-4.4-1.1-9,0-13.3
	c2.5-1.7,3.3-4.6,6.1-6.1c6.9-9.8,18.1-14.4,24-25.1C43.7,24.6,45.5,27.5,46.3,28.2z M70.7,31.5c-0.5,1.6-0.2,4.4-1.8,5.7l-1.3,5.7
	c-0.8,0.2-0.6-0.3-1-0.8c-1.1-1.7-3.1-1.7-3.8-3.5c0.8-2.7,1.1-5.5,2-8.2C67.1,29.9,68.3,32.9,70.7,31.5L70.7,31.5z"/>
<path class="st4" d="M55.2,52.6c3.8,5,8.8,8.5,15,9.2c0.9,0,1.8-0.1,2.7-0.2c0.3,0,0.6,0.3,0.6,0.6L73.3,63l-9.4,14.1
	c-0.5,1-1.7,0.3-2,1.3l-0.4,0.9c0.6,1.2,0.8,2.5,0.4,3.8c-1.3,2.1-3.4,3.6-4.1,6c0.3,1.8,1.4,3.2,1.9,4.9c0.5,1.2,0.7,2.5,0.7,3.8
	c0.9-0.4,2.3-1.1,3.2-0.1c0.7,1,0.7,2.3,0.1,3.3c-0.8,1.4-2.5,2.3-3.9,3c-0.3,1.1-0.4,2.5-1.5,3.1c-0.8,0.4-1.7,0.7-2.6,0.7
	c-0.2,1.1-1.1,1.9-2.2,2.2c-0.1,0.8,0.1,1.9-0.8,2.4c-0.6,0.5-1.4,0.7-2.1,0.5c-0.1,1.2-0.8,2.2-1.9,2.6l-1.2,0.1
	c-1,1-2.3,1.1-3.6,0.8c-0.8-0.2-1.4-0.6-2-1.2c-1.1,0.1-2.2-0.4-2.8-1.3c-0.3-0.5-0.6-1.1-0.9-1.7c-1.6-0.3-2.8-1.5-3.2-3.1
	l-0.3-1.7c-2.8-2.5-2.3-7-1.1-10.2l1.4-3.1c-1-2.2-2.3-4.1-3.5-6.3c-0.7-0.1-1.6,0-2-0.7l-3.1-5.8c-0.6-0.3-1.4-0.4-1.8-1.2
	l-7.7-14.2c-0.1-0.5-0.1-1,0.2-1.5l0.9-0.6c2.9-0.4,5.9-1.1,8.1-3.6c1-0.9,2.1-2.6,3.6-1.8l0.5,0.5l8.2,14.9c0.1,0.6-0.6,1-0.2,1.5
	l2.6,5.3c0.4,0.9-0.8,1.7,0.2,2.4l0.2-0.3c0.6-2,1.4-4.3,0.8-6.4c0.2-2.4,2.8-3.3,4.6-3.8l0.8-1.5c-0.5-0.6-0.6-1.5-0.3-2.2
	c2.3-5.4,4.7-10.7,7-16.2C54.5,52.4,54.9,52.4,55.2,52.6L55.2,52.6z"/>
<path class="st2" d="M70.9,63.5c-0.2,0.5-0.4,0.9-0.7,1.2c-6.3,0.9-11.8-2.9-15.8-7.5c0.1-0.6,0.3-1.2,0.6-1.7
	C59.2,60.1,64.2,64.1,70.9,63.5L70.9,63.5z"/>
<path class="st3" d="M68.8,66.7c-0.2,0.4-0.4,0.8-0.7,1.2c-6.2,0.2-11.2-3-15.2-7.3c0.1-0.5,0.3-0.9,0.6-1.3
	C57.6,63.5,62.5,66.9,68.8,66.7z"/>
<path class="st2" d="M66.9,69.4c-0.2,0.4-0.5,1.3-1.1,1.2c-5.8-0.1-10.4-2.9-14.3-6.7c0.1-0.6,0.3-1.1,0.6-1.6
	C56.1,66.1,60.8,69.6,66.9,69.4z M36.1,73.9c0.1,1.8-2,2.7-3.3,3.8l-2.7,1.4c-0.2,0.3-0.3,0.7-0.1,1c1.1,1.2,2.3-0.4,3.3-0.8
	c1.2-0.7,2.4-1.6,3.5-2.5l2.5,4.6c-0.5,1.5-2.1,2.5-3.4,3.3c-1.5,0.8-3.1,1.7-4.8,1.4c-1.3-2.1-2.4-4.3-3.6-6.3
	c-0.7,0.1-1.3-0.3-1.6-1l-6.9-12.6c-0.1-0.5,0.5-0.5,0.7-0.6c3.4-0.3,6.5-2.6,9-5l0.4,0.1L36.1,73.9z"/>
<path class="st3" d="M65.1,72.1c-0.2,0.5-0.4,0.9-0.8,1.3c-5.7,0.1-10.3-2.7-14.2-6.3c0.1-0.6,0.3-1.2,0.6-1.7
	C54.7,69.1,59.2,72.1,65.1,72.1z"/>
<path class="st2" d="M63.1,74.8c-0.1,0.4-0.3,0.8-0.7,1c-5.3,0-9.7-2.5-13.5-5.6c-0.1-0.5,0-1,0.3-1.4
	C53.2,72.1,57.6,74.8,63.1,74.8z M60.3,77.6c-0.2,1.1-1,2.1-2,2.6c-2.1,1.2-4.8,0.8-6.9-0.3c-1.6-1-3.2-2.1-3.3-4.1
	c0-1.1,0.3-2.2,1-3.1C52.3,75.2,56.2,76.9,60.3,77.6z"/>
<path class="st5" d="M46.1,75.4c-0.4,2.2,1,4.2,2.7,5.3c2.7,2,7,2.9,10.1,1.3l1.2-0.7c0.3,0.3,0.3,0.8,0.2,1.2c-1.2,2.1-3,3.8-4,6
	c-0.4,3.4,2.7,5.8,2.3,9.2c-0.1,2.3-0.4,4.6-0.8,6.9c-0.3-2.9-2.1-5.5-4.6-7c-0.6-0.1-1.2,0-1.7,0.3c-0.4,0.3-0.8,0.8-1,1.3
	c-0.6-0.2-1.3-0.2-1.9,0.1c-1,0.6-1.6,1.7-1.6,2.8c-1,0.3-1.6,1.2-1.8,2.2c0.1,0.6-0.1,1.4,0.2,2c-1.8,2.3-1.1,5.4,0,7.7l0.6,0.8
	c-0.5,0.3-1.1,0.3-1.6,0.1c-2.1-1-2-3.6-1.9-5.8c-0.1-1.3,0.9-3-0.1-4c-0.4-0.2-0.9,0-1,0.4c0,0,0,0,0,0.1c-0.6,2.5-1.2,5.5-0.5,8
	c-1.6-1-1.7-3-1.6-4.7c0.2-2.1,0.6-4.2,1.2-6.3c0-0.3-0.1-0.7-0.4-0.9c-0.4-0.2-0.9,0.1-1,0.5c-0.9,2.7-1.3,5.5-1.2,8.3
	c-0.8-0.2-1.1-1.3-1.4-2c-0.3-2.5,0.5-5.1,1-7.5c0-0.4,0-1-0.5-1.1c-1.3,0.1-1.3,1.7-1.7,2.8l-0.4,2.5c-1.2-1.6-0.6-4-0.2-5.8
	c1.8-4.7,4.6-8.9,6.9-13.3c1-2.5,2.6-5,2.4-8c-0.2-0.8-0.1-1.6,0.3-2.3c0.5-0.4,1.1-0.7,1.7-0.8L46.1,75.4z"/>
<path class="st3" d="M40,85.3c-1.2,2.5-2.5,4.9-3.9,7.3H36l-2.5-4.7c2.2-0.9,4.2-2.1,6-3.5C39.7,84.6,39.9,84.9,40,85.3z"/>
<path class="st4" d="M44.8,90c-0.1,0.8-0.4,1.7-0.4,2.4c0.8-1.2,1.7-2.8,3.2-3.4c0.4,0.1,0.7,0.3,0.8,0.7c0.4,3.2-0.6,6.6-1.6,9.5
	c-0.4-0.2-0.8-0.4-1-0.7c0.6-2.2,1.7-4.3,1.9-6.8c0-0.6,0.4-1.4-0.1-1.8c-1,0.6-1.5,1.7-2.1,2.6c-0.7,1.3-1.3,2.7-2,4
	c-0.3-0.4-1.8-0.7-1.2-1.6c1-2.1,1.7-4.3,1.9-6.6c-0.1-0.1-0.3-0.1-0.5,0c-1.6,1.8-3,3.8-4,6l-1-0.7c1.4-2.3,2.6-5,5.2-6.3
	c0.2,0,0.5,0.1,0.6,0.2C45.1,88.3,44.8,89.2,44.8,90L44.8,90z"/>
<path class="st3" d="M62.6,99.2c0.1,1.3-1.3,2-2.2,2.5c-0.1,0-0.4,0.1-0.3-0.1l0.2-1.8c0.6-0.4,1.3-0.8,2.1-0.9L62.6,99.2z
	 M55.5,102.6c0.3,0.9,1.2,2.2,0.2,3.1c-0.1,0.1-0.3,0.1-0.5,0.1c-0.8-2.2-2-4.2-3.6-5.8c0-0.4,0.2-0.8,0.5-1
	C54.1,99.1,54.6,101.3,55.5,102.6L55.5,102.6z M52.4,103.5c0.5,1.6,2.7,3.5,0.8,5c-1.2-2.3-2.7-4.4-4.6-6.1
	c-0.2-0.4-0.1-0.9,0.1-1.3c0.2-0.3,0.5-0.4,0.8-0.5C50.9,100.9,51.6,102.4,52.4,103.5z M50.3,106.5c0.8,1.2,1.4,2.5,1.7,3.9
	c-0.1,0.5-0.3,0.8-0.8,1l-0.8-0.2c-0.7-1.9-1-4.7-3.4-5.2c-0.4-0.6-0.5-1.4-0.2-2.1c0.3-0.3,0.9-0.3,1.2-0.1
	C49,104.5,49.8,105.4,50.3,106.5z M47.8,108.7c0.6,1.3,0.9,2.7,0.9,4.1c-0.1,0.5-0.4,0.8-0.9,0.9c-1.4-0.2-1.5-1.9-1.9-2.9
	c-0.3-1-0.2-2,0.3-3C46.8,107.3,47.6,108.1,47.8,108.7L47.8,108.7z"/>
<path class="st4" d="M86.6,120.6c1.4,0,2.6,1.2,2.7,2.6c0,1.4-1.2,2.6-2.6,2.7c-1.4,0-2.6-1.2-2.7-2.6v0
	C83.9,121.8,85.1,120.6,86.6,120.6C86.5,120.6,86.5,120.6,86.6,120.6z M86.6,121c-1.2,0.1-2.2,1.1-2.1,2.4c0.1,1.1,1,2,2.1,2.1
	c1.2-0.1,2.2-1.1,2.1-2.4C88.6,122,87.7,121.1,86.6,121z M86.1,124.8h-0.5v-2.9c0.3-0.1,0.6-0.1,0.8-0.1c0.3,0,0.6,0.1,0.9,0.2
	c0.2,0.1,0.3,0.4,0.3,0.6c0,0.3-0.2,0.6-0.6,0.7c0.3,0.1,0.5,0.4,0.5,0.7c0,0.2,0.1,0.5,0.2,0.7h-0.5c-0.1-0.2-0.2-0.5-0.2-0.8
	c0-0.3-0.3-0.5-0.6-0.5c0,0,0,0-0.1,0h-0.3L86.1,124.8L86.1,124.8L86.1,124.8z M86.1,123.1h0.3c0.3,0.1,0.6-0.1,0.7-0.4
	c0,0,0-0.1,0-0.1c0-0.3-0.3-0.6-0.6-0.5c0,0-0.1,0-0.1,0c-0.1,0-0.2,0-0.3,0V123.1L86.1,123.1z"/>
</svg>
