<svg id="Layer_1" data-name="Layer 1" xmlns="http://www.w3.org/2000/svg" viewBox="0 0 348 510"><defs><style>.cls-1{fill:#ed1b2d;}.cls-2{fill:#fff;}.cls-3{fill:#231f20;}.cls-4{fill:#fdb826;}</style></defs><title>Artboard 1</title><path class="cls-1" d="M308.1,33.8l.8,15.5c-4.5,0-1.3,6-5.2,6.3-6.9,21.4-28.6,18.3-37.1,38.1-4.5,6.3-8.6,12.5-8.4,20.7l-4.1,3.3a3,3,0,0,0,3.1,1.1v4.1H250c-5.2-15.8,9.8-31.1,3.1-47.7C242,61,217.9,49.2,229.4,28.7c2.6.8,4.5-2.4,5.2-4.1a2.48,2.48,0,0,0-1.1-2.1c5.6-8.2,17.1-5.6,24.7-6.3,2.8.4,4.9,3.3,7.4,5.2,5.8-3.5,8-9.5,16.6-7.2l2-2.1C294.1,16.7,308.6,19.3,308.1,33.8Z"/><path class="cls-2" d="M298.7,30.7c.8,6,1.1,14.6-2,20.7-1.5,2.1-7.4,3.3-7.4,7.2h-1.9L263.5,80.4c-1.5-15.8-16.2-19.2-22.7-32.1-5.8-1.1-4.5-8-3.3-11.5A33.85,33.85,0,0,1,249,24.5c6.3-2.4,12.1,2.8,13.4,9.3,6.2,1.1,4.9,11.6,11.5,8.2,3.5-3.1,2.4-5.6,1.1-9.3-1.5-2-4.3-3.9-2.1-7.2,7.1-4.4,22.9-5.8,25.8,5.2Z"/><path class="cls-3" d="M161.5,95.8c4.4,12.4,17.6,19.9,27.3,28.1,12.9,8.8,23.9,18.6,36.3,27.3,9.1-9.8,2.7-27.5,10.9-38.3,5.9-4.4,10.1,4.8,16.2,8.2,5.9-1.1,14,2.5,17.2-3.3,1.9.8,5.3,3.3,5.1,5.1C259,134,263,156.2,255.3,170.3c1.3,5.1-2.3,8-1.1,12.9,14.1,17.4,34.2,28.9,51.4,43.4,2.9-1.3,5.3,1.9,5.9,4-1.5-.2-2.1,1.7-4,1.1-6.5,21.2-3.6,41.3-8.9,60.4,4.6,2.7,0,6.7,0,10.1,3.8,22.4-7.8,45.1,2.1,67.3,1.3,4.2-2.3,7.4-1.1,10.1-2.1,11.8,4,30.2,0,42.2a19.3,19.3,0,0,1-1.1,12.1c1.1,18.8-.8,34.2-1.1,51.2.8,2.9,4.6,5.9,7.2,3.3.6,2.5-4,6.7-3.3,10.1a257.26,257.26,0,0,1-47.2-3.3c-41.3,4.4-87,9.8-125.8-.8-34.2,2.7-65.2,3.8-98.7-1.1-1.9,3.8-6.7,1.3-10.1,1.9-3.3-5.1-6.7,3.3-10.1-2.9,6.7-12.8-2.9-25.4,3.3-39.2,1.3-30,1.3-63,4-93.7h1.1c.4-20.7,6.9-36.6,5.1-57.3,2.3-17.8.2-35.1-2.1-53.5-1.9-2.9-7.8-.8-6.9-5.9-1.7-6.1,10.1-8,8-16.2,1.7-1.9,4.8-.8,7.2-1.1,4.6-8.8,12.8-14.8,19.1-22.2,12-7.6,16.2-20.9,29.3-27.1,21.3-21.8,47.9-37.5,64.3-62.2a26.92,26.92,0,0,0,10.1-16.2c-6.5-.6-3.8-5.7-2.9-10.1h6.9a2.37,2.37,0,0,0,1.1,2.1c5.3.2,5.7-7.8,12.1-6.1Z"/><path class="cls-2" d="M165.5,114.8c8.6,4.6,14.2,14.1,24.3,17.3,0,4,5.3,6.3,6.9,8,5.3,6.5,13.3,10.9,17.2,16.2,14.1,9.4,22,20.7,29.3,34.2C262,203,275.1,219,293.5,230.7a123,123,0,0,0,0,33.2c-2.3,1.9.2,8.2-2.1,11.2s-4.2,9.4-1.9,14h-2.1c.8,13.4,0,30.8-4,42.2,2.7,9.8-1.7,20.5,4,30.2q.9,60.3-2.9,122.9c-1.5,2.5-6.1-1.1-6.1,2.9h-2.2c-2.9-6.1-8.4-.8-14-2.9-19.1,1.5-38,6.5-59.4,5.9a318.27,318.27,0,0,1-55.2-2.9v-1.1c-13.7-4-29.3-1.1-43.2,0-16.7,4.8-35.7-.6-54.5,1.1v-1.1a19.05,19.05,0,0,0-12.9,0v1.2c-.8-2.9-5.3-1.7-8-2.1.6,2.1-5.7-.2-8.2-.8.8-62.4,5.9-134.1,11.2-198.3a105.66,105.66,0,0,1,0-52.4c9.8-6.5,12.9-18,24.1-24.1,27.3-38.3,71.2-56.7,94.3-98.6C155.3,100.8,162.1,112.1,165.5,114.8Zm95.6,13.1c-1.9,6.3-.8,17.2-6.9,22.2l-5.1,22.2c-3.3.8-2.5-1.3-4-3.3-4.4-6.5-12.1-6.5-15.1-13.9,3.3-10.5,4.2-21.8,8-32.3,9.1-1.4,13.7,10.7,23.1,5.1Z"/><path class="cls-3" d="M200.2,210.8c15.1,19.8,34.5,33.5,59.1,36.3a92.75,92.75,0,0,0,10.6-.9,2.52,2.52,0,0,1,2.4,2.5l-1.1,3.1-37,55.3c-1.8,3.8-6.8,1.1-7.8,5.2l-1.6,3.6a19.36,19.36,0,0,1,1.5,15.1c-5.3,8.1-13.2,14.1-16,23.5,1.1,6.9,5.4,12.6,7.6,19.2a35.15,35.15,0,0,1,2.6,14.7c3.7-1.5,8.9-4.3,12.4-.4a11.67,11.67,0,0,1,.2,12.8c-2.9,5.7-10,8.9-15.4,11.9-1.3,4.4-1.5,9.8-5.9,12.3a23.48,23.48,0,0,1-10.1,2.8,10.79,10.79,0,0,1-8.5,8.5c-.2,3.3.2,7.6-2.9,9.5a9.56,9.56,0,0,1-8.4,2.1,12,12,0,0,1-7.6,10.3l-4.7.3c-3.8,4-9.1,4.2-14.2,3.3a17.13,17.13,0,0,1-7.7-4.7,12.26,12.26,0,0,1-11.1-5.1,36.83,36.83,0,0,1-3.5-6.5,15.62,15.62,0,0,1-12.4-12l-1.1-6.5c-11.2-9.9-8.9-27.4-4.3-39.9l5.4-12.1c-4-8.5-9.2-16.2-13.6-24.6-2.6-.4-6.1,0-7.7-2.6L87.1,325c-2.5-1.3-5.7-1.7-7.2-4.5L49.5,264.6a7.86,7.86,0,0,1,.7-5.8l3.5-2.3c11.6-1.7,23.3-4.4,31.9-14.3,3.9-3.6,8.2-10.2,14.3-7.1l2,1.9,32.2,58.4c.4,2.4-2.5,3.9-.7,6L143.7,322c1.5,3.4-2.9,6.5.6,9.3l.9-1.4c2.3-7.7,5.5-16.8,3.3-25.2.6-9.3,10.9-12.8,18.2-15.1l3.3-6a9.65,9.65,0,0,1-1.3-8.7c9.1-21.4,18.4-42.2,27.7-63.6,1.2-1.2,2.7-1.4,3.8-.5Z"/><path class="cls-1" d="M262,253.5a16.11,16.11,0,0,1-2.7,4.8c-24.8,3.6-46.2-11.5-62.2-29.3a19.08,19.08,0,0,1,2.5-6.5c16.2,17.7,36.2,33.5,62.4,31Z"/><path class="cls-2" d="M253.7,265.9a14.58,14.58,0,0,1-2.7,4.5c-24.2.9-43.8-11.7-59.6-28.8a17.51,17.51,0,0,1,2.4-5.2C209.7,253.5,229.1,266.8,253.7,265.9Z"/><path class="cls-1" d="M246.4,276.9c-.9,1.5-1.8,4.9-4.4,4.6-22.9-.2-41-11.5-56.3-26.3a21,21,0,0,1,2.4-6.3C204,263.9,222.4,277.6,246.4,276.9ZM125.2,294.5c.2,7.3-7.9,10.5-12.9,14.7l-10.6,5.7a3.5,3.5,0,0,0-.4,3.9c4.2,4.6,8.9-1.7,12.9-2.9a86.85,86.85,0,0,0,13.6-9.8l9.9,18.1c-1.9,5.9-8.2,9.9-13.3,12.9-5.9,2.9-12.2,6.8-18.9,5.5-5.2-8.2-9.4-16.7-14.3-24.8a6.57,6.57,0,0,1-6.3-3.8L57.7,264.6c-.4-1.8,1.8-1.8,2.6-2.4,13.3-1.4,25.7-10.3,35.3-19.7l1.7.4Z"/><path class="cls-2" d="M239.1,287.3a15.31,15.31,0,0,1-3.1,5.2c-22.3.4-40.3-10.4-55.6-24.7a15.39,15.39,0,0,1,2.3-6.5C198.5,275.6,216.1,287.2,239.1,287.3Z"/><path class="cls-1" d="M231.5,298a6.41,6.41,0,0,1-2.6,4.1c-20.9,0-38.1-9.8-53.1-22.1a6.4,6.4,0,0,1,1.1-5.5C192.3,287.2,209.7,297.7,231.5,298Zm-11.4,11a14.58,14.58,0,0,1-7.8,10.1c-8.4,4.5-18.9,3.1-27.2-1.1-6.3-4-12.6-8.1-12.9-16.2a21.15,21.15,0,0,1,3.8-12.1A101.67,101.67,0,0,0,220.1,309Z"/><path class="cls-4" d="M164.5,300.2c-1.5,8.5,4,16.5,10.7,20.9,10.4,7.7,27.7,11.3,39.5,4.9l4.5-2.6a4.11,4.11,0,0,1,.6,4.5c-4.6,8.2-11.8,14.8-15.6,23.5-1.6,13.2,10.6,22.7,8.9,36a191,191,0,0,1-3.3,27.1A36.46,36.46,0,0,0,191.6,387a9.57,9.57,0,0,0-6.8,1.1,12.41,12.41,0,0,0-3.8,5.3,10.49,10.49,0,0,0-7.6.5,12,12,0,0,0-6.1,11.1,11,11,0,0,0-7.1,8.5c.3,2.5-.4,5.6.9,7.9-6.9,8.8-4.3,21.4,0,30.4l2.5,3.3a6.18,6.18,0,0,1-6.3.2c-8.4-4-7.9-14.2-7.4-22.7-.2-5.2,3.5-11.9-.2-15.9a3.06,3.06,0,0,0-4,1.7c0,.1,0,.1-.1.2-2.5,9.9-4.7,21.8-1.9,31.6-6.1-3.9-6.7-11.7-6.2-18.5a128.37,128.37,0,0,1,4.5-24.6,4,4,0,0,0-1.6-3.4,3.15,3.15,0,0,0-4.1,1.9,88.43,88.43,0,0,0-4.5,32.7c-3.3-.7-4.4-5.1-5.5-7.9-1.4-9.9,2-19.9,4.1-29.3,0-1.6,0-3.8-2.1-4.2-5.3.3-4.9,6.8-6.5,10.8l-1.5,9.9c-4.5-6.1-2.3-15.6-.6-22.7,6.9-18.5,18-34.9,27.2-52.4,4.1-9.9,10.2-19.7,9.4-31.6a12.06,12.06,0,0,1,1.2-9.1,14.45,14.45,0,0,1,6.8-3.3Z"/><path class="cls-2" d="M140.6,339a292,292,0,0,1-15.4,28.6h-.3L115,349.3a92.8,92.8,0,0,0,23.5-13.9A10.68,10.68,0,0,1,140.6,339Z"/><path class="cls-3" d="M159.4,357.4c-.2,3.3-1.5,6.5-1.5,9.5,3.3-4.7,6.7-11.1,12.4-13.5a4.14,4.14,0,0,1,3.3,2.8c1.6,12.7-2.2,26-6.3,37.3a12.72,12.72,0,0,1-4.1-2.7c2.4-8.7,6.5-17.1,7.6-26.6,0-2.3,1.7-5.5-.2-7.2-4.1,2.3-5.8,6.5-8.4,10.2-2.7,5.1-5.3,10.5-7.7,15.7-1.4-1.7-7.3-2.7-4.5-6.1a80.4,80.4,0,0,0,7.6-26,1.39,1.39,0,0,0-1.9,0A87.06,87.06,0,0,0,140,374.3l-3.8-2.8c5.6-8.9,10.3-19.5,20.5-24.7a3.41,3.41,0,0,1,2.4.9c1.6,3.1.3,6.9.3,9.7Z"/><path class="cls-2" d="M229.4,393.8c.3,5.2-5.1,7.7-8.6,9.8-.4,0-1.5.4-1.3-.4l.7-7.2a24.54,24.54,0,0,1,8.1-3.6Zm-27.9,13.4c1.4,3.7,4.6,8.7.8,12.3a5.26,5.26,0,0,1-1.8.4A60.53,60.53,0,0,0,186.3,397a5.07,5.07,0,0,1,2.1-4.1c7.4.6,9.7,9,13.1,14.3Zm-12.2,3.5c1.8,6.3,10.6,13.8,2.9,19.5a82.42,82.42,0,0,0-18.2-24,6.41,6.41,0,0,1,.3-4.9,5.44,5.44,0,0,1,3.3-2C183.3,400.2,186.2,406.1,189.3,410.7Zm-8.1,11.6a41.19,41.19,0,0,1,6.5,15.4,4.91,4.91,0,0,1-2.9,4l-3.3-.6c-2.6-7.4-4.1-18.3-13.5-20.5a9,9,0,0,1-.8-8.3,3.55,3.55,0,0,1,4.8-.2A25.15,25.15,0,0,1,181.2,422.3Zm-9.8,8.6a41.5,41.5,0,0,1,3.6,16.2,4.36,4.36,0,0,1-3.5,3.6c-5.6-.7-5.8-7.4-7.6-11.4a16.42,16.42,0,0,1,1.2-11.7c2.4-2,5.5,1,6.3,3.3Z"/><path class="cls-3" d="M323.5,477.8a10.3,10.3,0,1,1-10.2,10.4v-.1a10.16,10.16,0,0,1,10-10.3Zm0,1.7a8.77,8.77,0,1,0,8.2,8.2A8.66,8.66,0,0,0,323.5,479.5Zm-1.9,14.6h-1.8V482.6a18.41,18.41,0,0,1,3.3-.3,6.37,6.37,0,0,1,3.6.8,2.77,2.77,0,0,1,1.1,2.4,2.8,2.8,0,0,1-2.2,2.8,2.79,2.79,0,0,1,1.9,2.8,9.59,9.59,0,0,0,.7,2.8h-1.9a7.27,7.27,0,0,1-.7-2.9,2.11,2.11,0,0,0-2.2-2h-1.5v4.9h-.3Zm0-6.4H323a2.15,2.15,0,0,0,2.7-1.7v-.3a2.3,2.3,0,0,0-2.4-2.1.37.37,0,0,0-.3.1h-1.4v4Z"/></svg>