<?xml version="1.0" encoding="utf-8"?>
<!-- Generator: Adobe Illustrator 22.1.0, SVG Export Plug-In . SVG Version: 6.00 Build 0)  -->
<svg version="1.0" id="Layer_1" xmlns="http://www.w3.org/2000/svg" xmlns:xlink="http://www.w3.org/1999/xlink" x="0px" y="0px"
	 viewBox="0 0 19.7 4.3" style="enable-background:new 0 0 19.7 4.3;" xml:space="preserve">
<style type="textcss">
	.st0{fill:#E92733;}
</style>
<g>
	<path class="st0" d="M19.1,3.9c-0.2,0-0.2,0-0.3-0.2c0-0.1-0.1-0.2-0.3-0.3c-0.2,0-0.3-0.1-0.5-0.2c-0.1,0-0.1,0-0.2,0
		c-0.1,0-0.2-0.1-0.2-0.2c-0.2,0.1-0.3,0.1-0.5,0C17,3,16.8,3,16.6,3c-0.1,0-0.3,0-0.4-0.2c0,0,0,0-0.1,0c-0.1,0-0.3,0-0.4,0
		c0,0-0.1,0-0.1-0.1c0,0,0-0.1,0-0.1c0,0,0.1,0,0.1,0c0.2,0,0.4,0.1,0.6,0.1c0,0,0.1,0,0.1,0c0,0,0-0.1,0.1-0.1c0,0,0,0-0.1,0
		c0,0-0.1,0-0.1,0c-0.1-0.1-0.3-0.2-0.5-0.2c-0.2,0-0.5-0.1-0.8-0.1c-0.1,0-0.2-0.1-0.4-0.1c0,0-0.1,0-0.1,0c-0.4,0-0.8-0.1-1.2-0.1
		c-0.1,0-0.1,0-0.2,0.1c-0.1,0-0.1,0-0.2-0.1c0,0-0.1-0.1-0.1,0c-0.3-0.1-0.6-0.1-0.9-0.1c0,0-0.1,0-0.1,0c-0.1-0.1-0.3-0.1-0.4-0.1
		c-0.3,0-0.5,0-0.8-0.1c-0.1,0-0.1-0.1-0.1-0.1c-0.1,0-0.3-0.1-0.3,0c-0.1,0.1-0.3,0-0.4,0c-0.1,0-0.1,0-0.2,0l0,0
		c0.1,0,0.1,0.1,0,0.1c0.2,0,0.4,0,0.5,0.1c0,0,0,0,0,0c0.2,0.1,0.3,0.1,0.5,0c0,0,0.2,0.1,0.2,0.2c0,0-0.1,0.1-0.1,0.1
		c-0.1,0-0.2,0-0.3-0.1c-0.4-0.1-0.8-0.2-1.2-0.2c0,0,0,0,0,0c-0.2,0.1-0.4,0-0.5,0c-0.1,0-0.2,0-0.3,0c-0.1,0-0.3,0-0.4,0
		c-0.1,0-0.2,0-0.4,0c-0.2,0-0.3,0-0.5,0c-0.2,0-0.3,0-0.5,0c0,0-0.1,0-0.1,0c-0.3-0.1-0.6,0-0.8-0.1c0,0-0.1,0-0.1,0
		c-0.2,0-0.4,0-0.5,0C5,1.6,4.7,1.6,4.5,1.6c-0.1,0-0.2,0-0.3,0c-0.3,0-0.6,0-0.9,0c0,0-0.1,0-0.1,0C3,1.8,2.9,1.8,2.7,1.8
		c-0.1,0-0.2,0-0.3,0.1c-0.2,0-0.4,0-0.5,0C1.6,2,1.3,2,1,2.2c-0.3,0.1-0.6,0-0.7-0.4c0-0.1,0-0.3,0-0.4c0-0.1,0.1-0.2,0.2-0.2
		C0.9,1,1.4,0.9,1.8,0.9C2.4,0.8,3,0.8,3.6,0.7c0.2,0,0.4,0,0.6,0c0.4,0,0.8,0,1.3-0.1c0.2,0,0.5,0,0.7,0c0.5,0,1,0,1.4,0.1
		c0.6,0,1.3,0.1,1.9,0.1C10.1,1,10.8,1,11.4,1.1c0.4,0.1,0.7,0.1,1.1,0.1c0.5,0.1,1,0.1,1.5,0.2c0.2,0,0.5,0.1,0.8,0.1
		c0,0,0,0,0.1,0c0,0,0,0-0.1,0.1c0,0-0.1,0-0.1,0c-0.4,0-0.8-0.1-1.1-0.2c-0.4-0.1-0.9-0.1-1.3-0.2c-0.3,0-0.5-0.1-0.8-0.1
		C10.8,1.2,10.1,1.1,9.5,1C9.2,1,8.9,1,8.5,0.9C8.2,0.9,8,0.9,7.7,0.8c-0.2,0-0.5,0-0.7,0c-0.4,0-0.7,0-1.1,0c-0.2,0-0.3,0-0.5,0
		c-0.1,0-0.1,0.1-0.2,0.1c0,0,0,0-0.1,0c0,0,0,0,0,0c0.1-0.1,0-0.1-0.1-0.1c-0.2,0-0.5,0-0.7,0c0,0,0,0,0,0c0,0-0.1,0-0.1,0.1
		C4.2,1,4.3,1,4.4,1c0.1,0,0.1,0,0.2,0c0,0,0.1,0,0.1,0C4.8,0.9,4.9,0.9,5,1C5.1,1.1,5.3,1,5.5,1.1c0.2,0,0.5,0,0.7,0
		c0,0,0.1,0,0.1,0l0,0c0.4,0.1,0.8,0.1,1.1,0.1c0.1,0,0.2,0,0.3,0c0.1,0,0.2,0,0.4,0c0.3,0,0.6,0.1,0.9,0.1c0.1,0,0.2,0,0.3,0
		c0.1,0,0.2,0,0.1,0.1c0.2-0.1,0.4-0.1,0.6,0c0.3,0,0.6,0.1,0.8,0.1c0.2,0,0.4,0,0.5,0.1c0.2,0,0.4,0.1,0.6,0c0.1,0,0.2,0.1,0.3,0.1
		c0.1,0,0.2,0,0.3,0.1c0,0,0,0,0.1,0c0.2,0,0.3,0,0.5,0c0.1,0,0.1,0,0.2,0c0.1,0,0.1,0,0.2,0c0.1-0.1,0.2,0,0.2,0c0,0,0.1,0,0.1,0.1
		c0.1,0,0.1,0,0.2,0c0.2-0.1,0.4,0,0.6,0.1c0,0,0.1,0,0.1,0c0.2,0,0.4,0.1,0.6,0.1c0,0,0.1,0,0.1,0c0.1,0,0.1,0,0.2,0
		c0.1,0,0.1,0.1,0.2,0.1c0.2,0,0.4,0,0.6,0.1c0.1,0,0.1,0,0.2,0.1c0.2,0,0.4,0.1,0.6,0.1c0,0,0.1,0,0.1,0.1c0,0,0.1,0,0.1,0
		c0.1,0,0.3,0,0.4,0c0,0,0,0,0,0c0,0,0,0,0,0c-0.2-0.1-0.5-0.1-0.7-0.2c-0.2,0-0.5-0.1-0.7-0.1C16.5,2,16.2,2,16,2
		c-0.3-0.1-0.7-0.2-1-0.2c0,0,0,0,0,0c0,0,0-0.1-0.1-0.1c0,0,0.1-0.1,0.1,0c0.3,0,0.6,0,1,0.2c0,0,0,0,0.1,0c0.3,0,0.6,0.1,0.9,0.1
		c0.5,0.1,1.1,0.2,1.6,0.3c0.1,0,0.1,0,0.2,0c0.1,0,0.2,0.1,0.3,0.2c0.3,0.3,0.3,0.7,0.4,1C19.4,3.7,19.3,3.9,19.1,3.9z M3.6,0.9
		C3.6,0.9,3.6,0.9,3.6,0.9C3.6,0.9,3.6,1,3.6,0.9c0,0.1,0.1,0,0.1,0C3.7,0.9,3.7,0.9,3.6,0.9z M3.9,0.9L3.9,0.9l-0.1,0L3.9,0.9z
		 M4,0.9L4,0.9C4,0.9,4,0.9,4,0.9C4,1,4,1,4,0.9C4,1,4,0.9,4,0.9z M6.9,1L6.9,1C6.9,0.9,6.9,0.9,6.9,1C6.9,0.9,6.9,0.9,6.9,1L6.9,1z
		 M7.4,1L7.4,1L7.4,1C7.4,1,7.5,1,7.4,1C7.5,1,7.5,1,7.4,1z M8.4,1.1C8.4,1.1,8.4,1.1,8.4,1.1C8.4,1,8.4,1,8.4,1.1
		C8.4,1,8.4,1,8.4,1.1C8.4,1.1,8.4,1.1,8.4,1.1z M9,1.1L9,1.1L9,1.1L9,1.1L9,1.1z M9.2,1.2L9.2,1.2L9.2,1.2C9.3,1.1,9.3,1.1,9.2,1.2
		C9.3,1.1,9.2,1.1,9.2,1.2z M10,1.4C10,1.4,10,1.4,10,1.4L10,1.4L10,1.4L10,1.4z M10.1,1.3C10.1,1.3,10.1,1.2,10.1,1.3
		C10.1,1.2,10.1,1.2,10.1,1.3L10.1,1.3C10.1,1.2,10.1,1.3,10.1,1.3z M11.1,1.8C11.1,1.8,11.1,1.8,11.1,1.8
		C11.1,1.8,11.1,1.8,11.1,1.8L11.1,1.8L11.1,1.8z M11.1,1.9L11.1,1.9L11.1,1.9L11.1,1.9z M11.8,2c-0.2,0-0.4,0-0.5-0.1
		c0,0,0.1-0.1,0.1,0c0.1,0,0.3,0.1,0.4,0C11.8,1.9,11.9,1.9,11.8,2C11.9,2,11.8,2,11.8,2z M12.8,2.2c-0.1,0-0.1,0-0.2,0
		c-0.1,0-0.3-0.1-0.4,0c0,0,0,0,0,0s0,0,0,0L12,2c0.1,0,0.1,0,0.2,0c0.2,0,0.4,0.1,0.6,0C12.8,2,12.9,2.1,12.8,2.2
		C12.9,2.2,12.9,2.2,12.8,2.2z M12.6,1.6L12.6,1.6L12.6,1.6L12.6,1.6L12.6,1.6z M13.7,2.3c-0.1,0.1-0.2,0-0.3,0c-0.1,0-0.2,0-0.2,0
		c0,0-0.1,0-0.1,0c0,0,0-0.1,0-0.1c0,0,0.1,0,0.1,0C13.3,2.2,13.5,2.2,13.7,2.3C13.7,2.3,13.7,2.3,13.7,2.3
		C13.8,2.3,13.7,2.3,13.7,2.3z M14,2.3L14,2.3C14,2.4,14,2.4,14,2.3L14,2.3L14,2.3z M14.2,2.4L14.2,2.4C14.2,2.4,14.2,2.4,14.2,2.4
		C14.2,2.3,14.2,2.4,14.2,2.4L14.2,2.4z M14.8,2.5c-0.1,0-0.2,0-0.3,0c0,0,0,0,0,0c0,0-0.1-0.1-0.1-0.1c0.1,0,0.1,0,0.2,0
		C14.6,2.4,14.7,2.4,14.8,2.5C14.8,2.5,14.8,2.5,14.8,2.5C14.8,2.5,14.8,2.5,14.8,2.5z M15.1,2.6C15.1,2.6,15,2.5,15.1,2.6
		C15,2.5,15.1,2.5,15.1,2.6c0-0.1,0.1-0.1,0.1,0C15.1,2.6,15.1,2.6,15.1,2.6z M15.5,2.6L15.5,2.6c-0.1,0-0.1,0.1-0.1,0.1
		c0,0-0.1,0-0.1,0c0,0,0,0,0,0c0,0,0.1,0,0.1,0C15.4,2.6,15.4,2.6,15.5,2.6L15.5,2.6z M15.9,2.5L15.9,2.5
		C15.9,2.5,15.9,2.5,15.9,2.5C15.9,2.5,15.9,2.5,15.9,2.5C15.9,2.5,15.9,2.5,15.9,2.5z M17.4,2.8c-0.2,0-0.4-0.1-0.6-0.1
		c0,0-0.1,0-0.2,0c0,0-0.1,0-0.1,0.1l0.1,0.1c0.2,0,0.4,0.1,0.7,0.1C17.5,2.9,17.5,2.9,17.4,2.8C17.5,2.8,17.5,2.8,17.4,2.8z
		 M17.7,2.9C17.7,2.9,17.7,2.9,17.7,2.9L17.7,2.9L17.7,2.9L17.7,2.9z M17.6,3.1L17.6,3.1L17.6,3.1z M17.9,2.9
		C17.9,2.9,17.9,2.9,17.9,2.9C17.9,3,17.9,3,17.9,2.9C17.9,3,18,3,17.9,2.9C18,3,17.9,2.9,17.9,2.9z M18.5,2.5c-0.1,0-0.1,0-0.2,0
		c0,0,0,0-0.1,0l0,0C18.4,2.5,18.5,2.5,18.5,2.5C18.6,2.5,18.5,2.5,18.5,2.5z"/>
</g>
</svg>
