<?xml version="1.0" encoding="utf-8"?>
<!-- Generator: Adobe Illustrator 22.1.0, SVG Export Plug-In . SVG Version: 6.00 Build 0)  -->
<svg version="1.0" id="Layer_1" xmlns="http://www.w3.org/2000/svg" xmlns:xlink="http://www.w3.org/1999/xlink" x="0px" y="0px"
	 viewBox="0 0 161 104" style="enable-background:new 0 0 161 104;" xml:space="preserve">
<style type="textcss">
	.st0{fill:#FFECA8;}
</style>
<g>
	<path class="st0" d="M53.7,93.6c-0.5-0.5-0.5,0.2-0.9,0.6c0.4-0.9-0.5-1.5-0.1-2.9l0.4,0.6c0-0.2-0.1-0.6,0.1-0.8
		c-0.1,0.8,0.3,1.6,0.8,0.8c0.3,0.7-0.4,3.2-1,4.5c0-0.3,0.1-0.7-0.2-1.2C53.1,94.8,54,94.3,53.7,93.6z"/>
	<path class="st0" d="M29.4,92.1c-0.5,0.6-1.1,1.7-0.8,0.8l0.3-0.8C29.1,92.3,29.3,92.3,29.4,92.1z"/>
	<path class="st0" d="M22.7,70.3l0.9,0.1C23.5,70.7,23.1,70.4,22.7,70.3z"/>
	<path class="st0" d="M10.1,75.8c0.2-0.2,0.4-0.2,0.6-0.2C10.5,75.8,10.3,75.9,10.1,75.8z"/>
	<path class="st0" d="M42,95.2c0.4-0.4,0.8-1.1,0.7-0.4C42.5,95.1,42.2,95.2,42,95.2c-0.3,0.3-0.6,0.5-0.8-0.1
		c0.1-0.1,0.1-0.1,0.2-0.2C41.6,95.1,41.8,95.2,42,95.2z"/>
	<path class="st0" d="M48.3,96.4C48.5,96.5,48.3,96.5,48.3,96.4L48.3,96.4z"/>
	<path class="st0" d="M49.8,93.2c0-0.1,0-0.2,0-0.4C49.8,93,49.8,93.1,49.8,93.2z"/>
	<path class="st0" d="M40.3,89.4L40.3,89.4C40.3,89.3,40.3,89.3,40.3,89.4z"/>
	<path class="st0" d="M48.7,96.1c-0.1,0.1-0.2,0.2-0.3,0.2C48.4,96.2,48.5,96.2,48.7,96.1z"/>
	<path class="st0" d="M48.6,96.5c0.1,0,0.1,0,0.2-0.1C48.8,96.6,48.7,96.7,48.6,96.5z"/>
	<path class="st0" d="M48.4,96.3c0,0.1-0.1,0.1-0.1,0.1c-0.1,0-0.1-0.1-0.3-0.1C48.2,96.4,48.3,96.3,48.4,96.3z"/>
	<path class="st0" d="M25.6,56.7C25.6,56.7,25.6,56.7,25.6,56.7C26,56.6,25.9,56.7,25.6,56.7z"/>
	<path class="st0" d="M26.5,82.2C26.5,82.2,26.5,82.2,26.5,82.2C26.5,82.2,26.5,82.3,26.5,82.2L26.5,82.2z"/>
	<path class="st0" d="M25.7,84.7l0.1-3.3c0.1,1.1,0.3,1,0.6,0.8L25.7,84.7z"/>
	<path class="st0" d="M30.1,30.3l0.2,0.1c-0.1,0-0.2,0-0.3,0L30.1,30.3z"/>
	<path class="st0" d="M22.5,70.2C22.5,70.2,22.5,70.2,22.5,70.2c0.1,0,0.1,0,0.2,0L22.5,70.2z"/>
	<path class="st0" d="M38.5,85.2c-0.2,0.1-0.3,0.3-0.4,0.4C38.2,85.4,38.3,85.2,38.5,85.2z"/>
	<path class="st0" d="M50.3,96.6c0,0.2-0.2,0.5-0.1,0.6l-0.4-0.3C50,96.9,50.2,96.7,50.3,96.6z"/>
	<path class="st0" d="M54.9,91.9c0,0.1,0.1,0,0.2,0.2l-0.1,0.4C54.7,92.5,54.5,92.1,54.9,91.9z"/>
	<path class="st0" d="M51.1,94.1c0.2-0.8,0.4-0.5,0.6-0.3c0,0,0,0-0.1,0C51.6,94.9,51.4,94.5,51.1,94.1z"/>
	<path class="st0" d="M52.1,93.9c0,0.5-0.1,0.1-0.3-0.1C51.9,93.9,52,93.9,52.1,93.9z"/>
	<path class="st0" d="M47.8,95.7c0.2-0.2-0.1,1,0.1,0.7C47.8,97.4,47.1,95,47.8,95.7z"/>
	<polygon class="st0" points="51.6,92.5 51.5,91.6 51.8,91.5 	"/>
	<path class="st0" d="M49.4,91.8l0.5-0.2c0,0.2,0,0.3,0.1,0.4C49.7,92,49.3,92.1,49.4,91.8z"/>
	<path class="st0" d="M50.3,92.2c-0.1,0-0.2-0.1-0.3-0.2C50.1,92,50.3,92,50.3,92.2z"/>
	<polygon class="st0" points="51.1,91.3 50.7,91.3 51.2,91.1 	"/>
	<path class="st0" d="M44.3,91.2l-0.5-0.4c0-0.3,0.2-0.5,0.3-0.4C44.3,90.7,44.5,90.9,44.3,91.2z"/>
	<path class="st0" d="M46.3,88.7c-0.2,0.2-0.2,0.4-0.3,0.7l0.2-1.2L46.3,88.7z"/>
	<path class="st0" d="M44.9,87.3c0,0.3,0.5,0.7-0.1,0.9C44.9,87.9,44.3,87.1,44.9,87.3z"/>
	<polygon class="st0" points="37,88.3 37.1,88.4 36.6,90.4 	"/>
	<path class="st0" d="M31.5,83.5c-0.2-0.6-0.5-0.4,0-1.6c0.7-0.3-0.2,1.3,0.5,0.8C32.1,83.2,31.5,83.1,31.5,83.5z"/>
	<path class="st0" d="M31.5,83.5c0,0.1,0.1,0.2,0.1,0.3C31.6,83.7,31.5,83.6,31.5,83.5z"/>
	<path class="st0" d="M27.6,67.9c0,0.1-0.1,0.1-0.1,0.1C27.5,68,27.5,67.9,27.6,67.9z"/>
	<path class="st0" d="M20.2,82.8c0,0.1-0.1,0.2-0.4,0.3C19.9,83,20.1,82.9,20.2,82.8z"/>
	<path class="st0" d="M150.9,37.5c0.2-0.4,0.6-0.8,1.1-1.4c0.5-0.5,0.9-1.2,1.3-1.9c0.8-1.4,1-2.9,0-3.6c0.9-0.2,0.1-1.9,0.4-2.5
		l-0.8-0.3c-0.1-1,0.2-1.5,0.4-2.1c-1.5-2,0.1-3.6-0.1-5.4l-0.2,0c0,0,0.1-0.4,0.2-0.9c0.1-0.4,0.2-0.9,0.2-0.9
		c-0.7,0.5,0.5-0.4,0.2-0.9c0.3-0.6,0-1.5-0.6-2c0,0-0.1-0.3-0.1-0.5c-0.1-0.3-0.1-0.5-0.1-0.5c-0.3,1.3-1.1,0.1-2,0.3l0.6-0.8
		c-0.5-0.2-0.6,0.6-0.9,0.1c0.4-0.6,0-1.8,0.8-2.5c0.2,0,0.5,0.1,0.7,0.3c0,0.1,0,0.1,0,0l0.1,0c0,0,0,0,0,0
		c0.1-0.1,0.2-0.2,0.3-0.3c-0.4-0.8,0-0.6,0.4-0.7c-1.6-0.6-0.9-1.4-2.7-1.5c2.1,0.3-0.7-2.1,1.1-2.1c-1.6-0.2-0.3-0.4-1.5-0.4
		c0.7,0.8-0.1,2.2-0.4,3.2l-1.1-0.4c-1.3,1,1.1,1.4,0.7,2c0.3-0.4-0.3-1-0.6-0.9l1.2-0.2c0.8,0.9,0.1,2.1-0.3,2.9
		c-0.6-0.6-0.5,1-1.5,0.7l0-0.6c-0.5-0.1-0.7,0.5-1,0.8c0.6,0.7,0.9,1.9,1.1,3c0.2,1.1,0.3,2,0.8,2.3c-0.3-0.3-0.1-1,0.2-1.4
		l0.3,0.4c0.1,0.2,0.3,0.4,0.3,0.4c0-0.7-1.2-1.1-0.9-2.1c0.8,0.1,1.7-0.9,2.9-0.2c1.5,1.9-1.8,1.9-1.3,4.2
		c-0.2,0.2,1.3-0.5,0.9,0.7c-0.8,1.6-2.6,2.7-4.3,2.6c0.5-0.6,1.5-1.8,0.3-2c-0.5,0.6-0.8,1.6-1.6,1.6c1.4,0.7,0.5-1.1,1.6-0.3
		c0,0.4-0.5,0.6-0.8,0.8c0.6-0.3,1,0.4,1.3,0.6c-0.1,1.4,0.4,2.3,0.3,3.8c0.2,0.1,0.6,0.4,1,0.4c-0.3,0.3-1,0.7-1.7,0.8
		c-0.7,0.1-1.5,0-1.9-0.2c-0.2,0.5,0.3,0.9-0.3,1.1c-0.7-1.3,0.1,0.3-1.1-0.4c-0.4,0.3,0.5,0.5,0.6,0.9c-0.2,0-0.7-0.1-1-0.3
		c0.3,0.5,0.9,0.8,1.6,1.1c0.7,0.3,1.4,0.5,1.7,1.1c0.4,0.8,0.1,3.1,0,3.2c-1.1-0.5-4.2-4.1-5-5.5c-0.6-0.5,0.2,1,0,1.3
		c0.2,1.6-1.8,0.3-2.1,1.3l1,0.1c0.1,0.3-1.1,0.9-1.5,0.7c0.3,0.3,2.1,1.2,2.2,1.8c-0.9,1.2-3.6,0.4-4.5-0.6l2.6-0.6
		c-0.7-0.8-1.9,0.4-2.8-0.7l-1.1,1.7c0.2-0.1,1-0.5,1.2,0.2c-0.6,0.6-0.2,0.4-0.2,1.2c1.7,0.4,5.6,1.6,7.3,2.3l-1.3,0.2l0.3,0.7
		c-1.6,0.4-5.6-1.9-6.6-2.5c-0.3,0.7,1.5,2.3,1.9,2.5c-1.1,1.1-3.4-1.5-4.2-0.4l0.1-0.7c-0.4,0-1,1.1-1.2,0.6
		c0.2,0.7,0.8,2.1,1.3,2.2c0,0-0.6-0.3-1.1-0.6l-1.1-0.6c0.3,0.1,1.2,1.8,1.4,2.1c-0.4,0.3-1.9-1.5-1.7-1.9
		c-0.2,1.7-0.3,0.9-0.3,2.7c-0.3,0-0.9-1.8-0.8-2.1c-0.8-0.2-1.1,0.2-1.3,0.6c1.4,0.2,2.2,3.7,3,4.9c0,0-1.2-1-2.4-2
		c-1.2-1-2.4-2.1-2.4-2.1c0.2,0.3,1.2,1.9,1.2,2.1c-0.9-1.5-3.7-0.4-4.9,0.3l0.2-0.1c0.5,0.4-0.4,1.3-1.1,1c0.2,0.3,0.3,0.1,0.5,0.1
		c-0.4,1.6-2.1-1.9-2.4-0.2c0.7-0.5,1.2,0.1,1.4,0.7c-0.9-0.3-2.2,0.9-2.6-1.1c-0.3,0.6-0.7,0.5-0.4,1.4l-2.1-0.5
		c0.2,0.2,0.5,0.7,0.1,1c0.8-0.6,2.4,0.8,2.4-0.6c0.5,1.1,0.3,1.9,1.2,2.7c-2,0.1-3.7-1.5-5.3-2.5l-1.3,1.4l-0.2-0.5L114,50
		c-0.3-0.2-0.5-0.5-0.5-0.3c0,0.1,0.1,0.3,0.3,0.5c-0.2,0-0.4-0.1-0.5-0.2c0.2,0.7,0.7,1.5,1.2,2.1c0.1-0.3,0.1-0.6,0.2-0.9
		c0.5,0.6,1,1.2,0.7,1.8c-0.1-0.1-0.2-0.1-0.3-0.2c0.4,0.4,0.6,0.8,0.5,1.1l-1.5-0.3c0.1-0.2,0.2-0.7,0.3-1.2
		c-1.1-0.6-2.3-1.5-1.9-2.6l-0.7,1.1c-1.5-1-1.2-0.8-2.9-1.4c0.1,0.5,0.5,0.8,0.4,1.2c-1.4-1.3-1.9,2.5-2.5,1.2
		c-0.9-0.1-0.7-1.1-1.3-1.3c0.1,0.1,0.2,0.4,0.1,0.5l-0.9-0.8c-0.2,0.4,0.7,0.5,0.2,1.1c-1.4-0.4-2.2-0.8-3-0.1
		c-1.5,0.1,0.1-2.1-1-1.6c0,0.9,0.1,1.9-0.6,2.2c-0.5-0.5-0.6-1.1-1.4-1.3l0.3,1.2c-0.6,0.1-1.1,0-0.9,0.9c-0.6-0.4-0.9-0.3-1.1,0
		c-1-0.5,0.1-2.7,0.2-3.2c-0.6,1.1-1.4,0.7-1.6,2.3l0.9,0.2c-1.4,1.9-1.9-1.5-2.2,1.3c0.6-0.2,1.4,0.3,1.2,1.1l-1-0.5
		c0,0.4,0.5,0.1,0.2,0.6c-0.3-0.2-0.9-0.8-1.2-1.2l0,0.1l-1.6,0.1c0.3-0.1,0.4,0.4,0.1,0.5l-1.1-0.5c0.4,0.3,0.1,0.7-0.3,1
		c-1.3,0.6-1.5-2.7-2.4-1.2c0.1-0.1,0.2,0.1,0.4,0.1l-0.5,0.7c-0.5-2.7-3.3,0.3-3.9-2.4c-0.6,1.2,0.1,0.6,1.3,1.7L85,54
		c0.4,0,0.6-0.2,1,0c-0.9,1.3-2.2,0.1-2.9-0.5c-0.4,0.5,0.7,1.9-0.6,1.7c-1.8-0.2-0.1-2-1.1-2.1l-0.5,1.5c-1.5-0.8-2.3,0.4-3.3,0.8
		c-0.3-0.1-0.4-0.2-0.5-0.3c-1,0.9-2.7-0.8-3.4-0.1c0.3,0.2-0.3,1-0.3,1.3l-1.7-0.5c0.8,0.2,0.9,1,1.2,1.7c-0.5,0-0.8-0.4-1.2-0.4
		c0.3,0.2,0.5,0.5,0.4,0.9l-1.9-0.9c0.1-0.2,0.2-0.2,0.4-0.3c-0.4,0.1-1.4-0.2-1.8,0.5c0.1,0.3,0.4,0.5,0.5,0.8
		c0.3-1,0.7-0.3,1.1,0.2c-1.1,0.1-0.2,0.3-0.6,0.9c-0.8,0.1-1.3-0.8-1.3-1.5c-0.8,0.5-1,0.8-2.1,0.1l0.4,1l-0.9-0.2l0.9,1.2
		c-1.4,1.1-0.7-1.8-2.3-0.8l0.2,0.9c-0.7-0.2-1.3-1.8-1.6-0.5c-0.8-0.4,0.9-1.6-0.7-1.4c-0.2,0.5-0.7,1-1.1,1.3
		c-0.6-0.3,0.2-1.2,0.5-1.1c-2.4,0-0.8,3.5-3.2,2.7c0.6-0.8-1-1.7,0.8-2c-0.9-0.4-1.3,1.7-2.4,0.8l0.8,1.1c-0.3,0.1-0.7-0.3-0.9-0.4
		l0.2,0.9c-1.4-1.4-1.8,1.2-2.8-0.9c0.8,1.6-0.8,0.1-1.1,0.8c1.1,1,2.5-0.5,2.9,1c-0.3,0.5-0.8-0.1-1.1,0.4c0.3,0.2,0.8,0.5,1,0.8
		c-1.2,1.1-2.3-0.5-3.2-0.8l1.5,0.1c-0.4-1.5-0.7-0.1-1.3-1.3c-0.5,1-1.4-0.1-1.8,0.5c0.2,0,0.2,0.1,0.3,0.1
		c-1.6,0.3-1.5,2.9-2.1,3.1c-0.6,0.3-1.9-0.3-1.6-1c-0.6-0.3,2.2,0,0.8-1.8c-0.4,2.5-2-0.5-3.6,1.6c1,0.6-0.2,1.4,0.7,1.9
		c-1,0-1.1-0.3-1.6-0.9l-0.1,0.8c-1.6-1.3-0.6-1.4-2.7-1.7c0.8,0.4-0.5,1.2,0.1,1.6c-0.5,0.2-1,0.1-1.5-0.2l0.1,0.1
		c-2,0.2-1.2,1.3-3.2,1l0-0.5c-2.6-0.5-5.1,1.2-7.6,1.6l0.7-0.7c-0.2,0.3-1.8,0-2.3,0.9c0.2,0,0.5,0.1,0.6-0.1
		c0.2,0.5,0.2,1.3-0.3,1.6l-0.5-0.6l0,0.6c-0.8,0.4-0.2-1.1-1-0.7c0.2,1.1-0.6,1.6-1.5,2.1C24,71.4,23,72,23.2,73
		c-1.4-1,1.4-1.1,0.1-2c-0.1,0.3-0.1,0.7-0.5,1.1l-0.3-0.9c-0.1,0.1-0.2,0.1-0.2,0.2c0-0.3-0.2-0.8-0.1-1.1c0.2-0.1,0.3-0.1,0.5-0.1
		c-0.3-0.8,1.8-0.7,1.5-1.4c-0.3,0-0.7-0.6-1-0.8l1.1-0.5c-0.5,0.2-1.2-0.1-2-0.4c0.2-0.2,0.6-0.2,0.8-0.3c-0.3,0-0.6,0-0.9-0.3
		l1.6-0.3c0.1,0.1,0.1,0.2,0.1,0.3c0.1-0.2,0.8-0.4,0.3-1c-0.3-0.1-0.6-0.1-0.9-0.2c0.7,0.6-0.1,0.4-0.7,0.3
		c0.4-0.5-0.1-0.2-0.5-0.8c0.2-0.4,1.3-0.1,1.8,0.3c-0.1-0.6-0.2-0.8,0.8-0.9l-1-0.4l0.5-0.3l-1.4-0.2c-0.3-1.2,1.8,0.7,1.7-0.5
		l-0.9-0.4c0.5-0.2,2,0.4,1.1-0.4c0.7-0.1,0.9,1.2,1.5,0.5c-0.4-0.4-0.5-0.9-0.6-1.2c0.5-0.1,0.9,0.7,0.7,0.8c1-1.1-2.6-2.3-0.9-2.8
		c0.4,0.7,1.8,0.5,1.4,1.4c0.7-0.2-0.8-1.5,0.3-1.5L25.9,59c0.1-0.2,0.6-0.2,0.7-0.2l-0.9-0.4c1.8,0.2-0.2-1.4,1.9-0.8
		c-1.7-0.5,0.3-0.4-0.2-0.9c-1.3,0-0.6,1.4-2.1,0.8c-0.3-0.4,0.5-0.3,0.2-0.7c-0.3,0-0.8,0.1-1.1,0c-0.5-1.1,1.4-0.7,2-1l-0.7,0.6
		c1.5,0.6,0.4-0.2,1.6,0.1c-0.6-0.8,0.7-0.5,0.4-1.1c0,0.1-0.2,0-0.2,0.1c0.4-0.8-1.8-2.2-1.7-2.5c0-0.4,1-0.7,1.5-0.2
		c0.5-0.1-1,0.9,1.1,1.3c-1.9-1.5,1.3-0.6,0.3-2.4c-1,0.1-1.1-0.8-1.9-0.7c0.4-0.4,0.7-0.3,1.5-0.3l-0.6-0.5c1.8,0,1.4,0.4,2.7-0.2
		c-0.7,0.1-0.8-0.8-1.4-0.8c0.1-0.3,0.4-0.5,0.9-0.5l-0.1,0c0.8-0.9-0.5-1.2,0.7-1.9l0.4,0.3c1.6-0.8,1.6-2.7,2.6-3.8l0.2,0.6
		c-0.2-0.2,1-0.7,0.5-1.3c-0.1,0.1-0.3,0.1-0.3,0.2c-0.5-0.2-1.1-0.6-1.1-1l0.8,0.1l-0.5-0.3c0.2-0.5,1,0.5,1.1,0
		c-2-1,0.5-2.2-1.2-3.3c1.6,0.2-0.1,1,1.4,1.1c-0.2-0.2-0.4-0.4-0.5-0.7l0.9,0.4c0-1.7-0.6-2.5,0-3.8l-0.2,0c-0.2-0.6,0-0.8,0.9-0.8
		c-0.4-0.2-0.7,0.1-1-0.2c2.6-0.2-1.3-2.1,0.5-2.2c-1.8-0.4-3.2-1.7-4.7-1.8l3.8,2.8l-0.3,0c0,0,0,0,0.1,0.1l-4.1-3
		c-0.3,0.2,0,0.9-1,0.8l1,1.4c-0.5-0.2-1.2-0.2-1.3-0.4c-0.1,0.2-0.2,0.4-0.8-0.1c1.2,1.6,0.9,2.9,0.4,4c-0.5,1.2-1.3,2.3-0.9,3.7
		c-0.2,0.1-0.5-0.1-0.8-0.3c1,0.9-0.8,0.2-1,0.4l1.4,1.2c-0.6,0.1-1-0.3-1.3-0.4c-0.8,1.1,0.4,2.9-1,3.4c0.5,0.5,1.3,0.5,1.4,1
		c-1.4-1.2-1.3,0.9-2.3,0c1.6,1.1-0.2,1.6,2.3,2.5c-0.1,0.6-1.2-0.1-1.4-0.3c-0.2,0.6-0.3,1.1-1.3,1.2c0.4,0.6-1.8,2.3-0.2,3.6
		c-1-0.9-0.6-0.3-1.3-0.2L20.6,51l-0.2,0.8c-0.2,0.1-0.1,0.2-0.1,0.2c0,0.1,0.6,0.3,0.7,0.7c-0.2,0.5-0.8,0.3-1.4,0.3l-0.1-0.1
		l-0.3,0.3c-0.1,0.3,1.5-0.4,1.6,0.7c-0.3-0.1-1.9-0.3-1.3,0.3c0.1-0.4,0.8,0,1.1,0.3l-0.2,0.6l-1.2-0.8c-0.7,1.7-0.7,3.9-1.6,5.6
		c1.2,0.5-0.6,1.3,1.2,2l-0.1-0.1c0.4-0.4,1.3,0.8,0.9,1c-0.4-0.6-2-0.1-1.8-1.2l-1.2,0.4c-3.5-1.1-0.6,2.1-2.2,2.8
		c0.2,0,0.3,0,0.5,0.1c-1.5,0.6,0,2.6-0.6,2.7l0.9,0.4c-1.7,0.3-1.9,0.4-1.7,1.6c0.2,0,0.5,0,0.6,0.3c-0.8,0-1.6,0-1.6,0.8l0.3,0.1
		l-0.5,1.1c2.9,0.9-2.4,1.4,0.6,2.7c-0.5,0-0.8,0.1-1.1,0.4c-0.3,0.3-0.6,0.7-0.9,0.9c0.1,0,0.3,0.1,0.4,0.2
		c-0.9,0.2-0.9,0.7-0.7,1.2c0.2,0.5,0.6,0.9,0.4,1.3c-0.5,0.5-1.1,0.3-1.5,0.1c0.5,0.4,0,1.1-0.8,1.8c-0.7,0.7-1.6,1.5-1.4,1.6
		c-0.2,0.8,1.3-0.1,2-0.1c-0.8,1.2-3.3,0.8-2.5,1.9C6.8,83.3,7,83,7.2,83c0,0.2,1.1,0.2,2,0.1c0.9-0.1,1.8-0.2,1.2,0.2
		c0,0-0.2,0-0.3,0l-0.3,0c-0.8,0.8,0.2,0.8,0.7,0.8c0.5,0,0.5,0.1-0.6,0.8l-1.3,0.7c1,0,0.8,0.2,0.7,0.3c-0.1,0.2-0.2,0.4,0.4,0.4
		l0.2-0.1c-0.1,0.3,0.1,0.2,0.2,0.3c0.2,0,0.3,0.1-0.3,0.7l-0.4,0.1c0.6,0.4,0.7,0.3,1.5,0.5c0,0.1,0.1,0.4,0.4,0.2
		c-1,1,1.1,0.9,1.4,0.8c-0.4-0.3,0.3-0.7,0.8-1.1c-0.5,1-0.3,1.1,0.7,0.4c-1.1,1.5-2.3,3.2-1.2,3.4c0-0.3-0.2-0.4,0.2-0.7
		c0.3-0.3,0.3,0.1,0.4,0.2c0.3-0.3,0.1-0.6,0.6-1.1c-0.1,0.8,0.2,0.9,0.6,0.7c0.4-0.1,1-0.3,1.5-0.1c-0.1-0.5,0.4-0.8,0.7-1.4
		c-0.4,1,0.2,0.5,0.7,0.1c0.5-0.4,0.8-0.7,0.1,0.6c0.7-0.4,1.4-0.7,2.1-0.8c0.3-0.1,0.7-0.1,1-0.1c0.2,0,0.5,0,0.7,0
		c0.8,0.1,1.4,0.1,1.8-0.6c0.3-0.6,0.5,0.5,0.7,0.6l0.1-0.8c0.4,1.5,0.4,0.6,1,2.2c-0.1-1,0.1-1.4,0.6-2.1l0.2,1.7l0.4-1.2
		c0.1,0.5,0.4,0.4,0.7,0.3c-0.1,0,0-0.1,0-0.3c-0.3,1.7,0.8,1.7,0.8,2.5c0.6-1.6,0.6,0.6,1.1-0.9c0,0.2,0.1,0.5,0.2,0.6
		c-0.3,0.7-0.5,1.4-0.2,1.2c0,0,0,0,0,0l0.3-0.9c0.2,0.3,0.4,0.4,0.5,0.5c-0.1,0.1-0.2,0.2-0.4,0.4c0.1-0.1,0.3-0.3,0.4-0.4
		c0,0,0.1,0,0.1,0c0,0,0-0.1,0-0.1c0.2-0.2,0.4-0.3,0.5,0.1c1.2-1.2,1.3,2.4,2.8,0.7c-0.2,0.2-0.4,0.2-0.4-0.1
		c0.8,0.3,1.9-0.9,2.2,0l-0.2,0.9c0.5,0.5,0.9,0.9,1.4,1l-0.2,1c0.8-0.2,2,1.7,2.9-0.2c0.1,0.8,1-0.1,1.4,0.3l0.2-0.7
		c0.5-0.2,0.8,0.2,1.1,0.4c1.3-1.4,2,0.3,2.9,0.3l0-0.2l0.8,0.7c-0.1-0.7,0.1,0.5,0.4,0.4c0.2,0.4,0.7,0.3,1.1-0.1l0.6,0.1
		c-0.5-0.6,0.2-1.1,0.4-2l0.2,0.8c0.2-0.4-0.1-0.7,0.2-0.9c0.2,0.5,0.9,0.6,1,1.6c-0.1,0.2-0.2,0.4-0.3,0.6c0-0.1,0,0,0,0l0,0
		c0,0,0,0,0,0c0,0.1,0,0.2,0,0.4c0.5-0.1,0.3,0.2,0.2,0.6c0.7-1.3,0.9-0.3,1.5-1.9c-0.8,1.7,1.2,0.2,0.5,1.9c0.6-1.3,0.3,0,0.7-1.2
		c-0.6,0.3-0.9-1.1-1.2-1.8l0.6-0.8c0-1.6-1,0.4-1.2-0.1c0.1,0.4,0.6,0.1,0.6-0.3l-0.3,1.2c-0.7,0.4-1-0.6-1.3-1.3
		c0.5-0.3-0.4-0.8,0.1-1.6l0.3,0.2c0.2-0.4,0-0.8-0.2-1.2c-1.2,0.7-2.9-0.4-3.4,0.5c0.3-0.3,0.6,0.1,0.7,0.4l-0.6,0.4
		c0.4,0.1,0.9-0.9,1.4-0.4c-0.2,0.8,0,1.9-0.6,2.9c-1.3,1-0.6-2.1-1.9-2.1c-0.1-0.3,0.1,1.3-0.6,0.8c-0.8-0.9-1.1-2.8-0.8-4.4
		c0.3,0.5,0.9,1.6,1.2,0.5c-0.3-0.6-0.9-1-0.8-1.7c-0.6,1.3,0.6,0.5-0.1,1.6c-0.3-0.1-0.3-0.5-0.4-0.8c0.1,0.6-0.4,0.9-0.5,1.2
		c-0.8-0.1-1.4,0.4-2.4,0.4c-0.1,0.2-0.3,0.6-0.3,1c-0.4-0.5-0.6-2.7-0.3-3.5c-0.5-0.2-0.6,0.5-1,0c0.9-1.1-0.2,0.2,0-1.2
		c-0.4-0.3-0.3,0.6-0.6,0.9c0-0.2-0.1-0.6,0-1c-0.5,0.9-0.1,2.8-0.6,3.9c-0.4,0.7-1.7,1.8-1.8,1.9c0-1.2,1.2-5.8,1.9-7.2
		c0.2-0.8-0.6,0.7-0.8,0.8c-0.9,1.1-0.6-1.2-1.2-0.8l0.2,0.8c-0.2,0.3-0.7-0.3-0.7-0.8c-0.1,0.4-0.2,2.3-0.6,2.8
		c-0.9,0-1.1-2.6-0.7-3.9l0.9,1.7c0.3-1.1-0.6-1.3-0.2-2.6l-1.3,0.1c0.1,0.1,0.5,0.5,0.2,1.1c-0.5-0.2-0.3,0.1-0.8,0.5
		c0.2,1.5,0.4,5.3,0.3,7.1L32.6,90l-0.3,0.6c-0.6-1.1-0.2-5.5-0.1-6.7c-0.5,0.2-1,2.5-1,3c-0.9-0.1-0.1-3.5-1.1-3.4l0.5-0.4
		c-0.2-0.3-1.1,0-0.9-0.4c-0.3,0.6-0.8,2-0.7,2.4l-0.3-2.4c0.1,0.3-0.4,2.1-0.5,2.5c-0.3,0-0.1-2.3,0.2-2.5c-1,1.2-0.6,0.5-1.5,2
		c-0.2-0.2,0.4-2,0.6-2.2c-0.3-0.6-0.7-0.4-0.9-0.3c0.6,1-0.7,4.3-0.8,5.7c0,0-0.1-1.5-0.2-3c-0.1-1.5-0.3-3-0.3-3
		c0,0.3-0.2,2.2-0.2,2.4c0.2-1.7-1.7-2.2-2.7-2.1l0.1,0c0.1,0.3-0.1,0.5-0.4,0.6c-0.1,0-0.2,0.1-0.4,0c-0.1,0-0.1-0.1-0.2-0.3
		c0,0.3,0.1,0.2,0.1,0.3c-0.3,0.6-0.3,0-0.3-0.7c0-0.2,0-0.5,0-0.6c0.3-0.5,0.6-0.9,1-1.3c0.2-0.2,0.4-0.4,0.6-0.6
		c0.2-0.2,0.5-0.4,0.7-0.5c0.4-0.3,0.8-0.6,1.3-0.8c1.8-1,3.7-1.6,5.2-3.2c0.3,0,0.3,0.5,0.4,0.8c0.2-1.4,0.9,0.3,1.3,0.3l0.2-1
		c0.1-0.5,0.2-1,0.2-1c0.6,0.3,0.5,1,0.6,1.3c2-0.4,3.5-2.7,5.5-2.2c0.3-0.8-0.5-1.3,0.1-1.7c-0.4,2,2.3,0.2,2,1.6
		c0.1-2,2.4-1.1,1.4-3.6c0.8-0.4,1,0.9,0.8,1.2c1-0.4,1.8-0.6,2.8,0c0.4-0.8,4.7-0.4,5.2-2.6c-0.3,1.4,0.2,0.7,0.9,1.1l-0.3,1.2
		l1.3-0.4c0.3,0.1,0.4,0,0.3-0.1c0.2-0.1-0.2-0.6,0.3-1c0.9-0.3,1.1,0.4,1.7,0.8l-0.1,0.2l0.6,0c0.4-0.1-1.8-0.8-0.5-1.7
		c0.1,0.3,1.3,1.6,1.5,0.7c-0.7,0.2-0.8-0.6-0.6-1l1-0.3l-0.1,1.5c3-0.7,6.1-2.3,9.4-2.9c-0.3-1.2,2.3-0.5,1.7-2.3l-0.1,0.2
		c-0.8,0-0.1-1.5,0.6-1.4c-0.6,0.7,1.6,1.6,0,2.2l1.5,0.6c1.5,3.4,3.4-1.1,5.6-0.4c-0.2-0.1-0.2-0.3-0.3-0.4c2,0.7,3.6-1.8,4.2-1.4
		l-0.1-1c1.8,1.2,2,1.3,3.6,0.3c-0.1-0.2-0.3-0.4-0.1-0.7c0.6,0.6,1.1,1.3,2.3,0.9L85,62.8l1.9-0.2c-0.5-3,3.5,1.3,3.6-2
		c0.5,0.8,2,0.9,2.7,1.2c0-0.1,0-0.3,0.1-0.4c1,1.5,2.1-0.9,2.9-0.8c0.6,0.3,0.5,0.8,0.3,1.4c0.8-1.5,3.3,0.8,3.6,0.2
		c0.8-0.3,0-1.2,0.1-1.9c1.2,0,0.4,2.7,1.7,1.2c-0.2-0.1-0.6-0.1-0.5-0.3c0.5-0.4,0.8-4.1,1.5-3.5l-0.3,0.6c1.3,0.5,1.9-3,2.6-1.1
		l0.1,1c1.5-1.7,0.9,0.2,2.4-1.4l-0.1-0.1c0.9,0,1-1.3,1.8,0.1l-0.2,0.3c1-0.2,1.1-0.3,2.1-0.7c0.2,0.1,0.7,0.2,0.8-0.2
		c0.4,1.2,2.5-0.1,3-0.4c-0.9,0.1-0.6-0.6-0.6-1.1c0.8,0.9,1.1,0.8,1.6-0.1c0.6,1.5,1.2,3.1,2.6,2.7c-0.3-0.2-0.6-0.2-0.6-0.5
		c0-0.4,0.4-0.1,0.6,0c0-0.4-0.5-0.5-0.5-1c1.4,1.1,1.5-0.4,3-0.4c-0.6-0.3-0.3-0.7-0.4-1.3c0.7,1.7,1.2-2.1,1.5,0.3
		c1-1.1,2.5-1.7,3.9-2.4c1.3-0.6,2.5-1.2,2.6-2.1c0-0.7,1.1,0,1.5-0.2l-0.4-0.7c1.7,0.8,1.1,0.1,3.1,0.7c-1-0.6-0.9-1.1-0.7-2
		c0,0,0.4,0.3,0.8,0.5c0.4,0.2,0.9,0.5,0.9,0.5l-0.4-1.2c0.6,0.2,1-0.2,1.3-0.6c-0.2,0.1-0.2,0-0.3-0.2c1,1.4,2.7,0.1,3.5,0.5
		c-0.6-1.6,1.4-0.5,0.7-2c0.3,0.1,0.6,0.1,0.8,0.1c0.3,0.7,0.7,1.4,0.9,0.8c0,0,0.1,0,0.1-0.1L140,45c0.5-0.1,0.9-0.4,1.2-0.6
		c0,0.2,0,0.4,0,0.7c0.1-0.2,0.1-0.5,0.1-0.7c0,0,0.1-0.1,0.1-0.1c0,0-0.1,0-0.1,0c0.1-0.4,0.2-0.6,0.7-0.7c0.1-2.1,3.8-0.9,3.4-3.4
		c0,0.3-0.2,0.6-0.5,0.4c1-0.8,0.8-2.6,2-2.7l0.6,0.7c1-0.4,1.9-0.9,2.6-1.8L150.9,37.5z M46.3,95.3C46.3,95.3,46.3,95.3,46.3,95.3
		C46.1,95.4,46,95.6,46.3,95.3z M20.8,52.3l-0.2-0.2C20.9,52.1,21.2,52.1,20.8,52.3z M21.2,83.1c0-0.2-0.1-0.2-0.2-0.3
		c0.1-0.3,0.2-0.6,0.3-0.9C21.4,82.1,21.3,82.6,21.2,83.1z M19,83.5c0.1,0,0.2,0.1,0.2,0.1c0,0,0-0.1,0-0.3c0-0.2,0-0.4,0-0.6
		c0,0,0,0,0,0c0.1-0.3,0.2-0.5,0.3-0.8c0.1,0.1,0.1,0.1,0.2,0.2c0,0,0,0,0,0c0,0,0,0,0,0c0.1,0,0.1,0.1,0.1,0.1c0,0.1,0,0.2,0,0.3
		c0,0.2,0.1,0.3,0.2,0.1c0,0,0,0,0,0c0,0,0.1-0.1,0.1-0.1c-0.3,0.8-0.6,1.4-0.8,2l-0.1,0l0.1,0.1c0,0.2-0.1,0.3-0.1,0.5
		c-0.1-0.1-0.2-0.1-0.3-0.2c0.1,0,0.2,0,0.2,0L19.1,85C18.9,84.7,18.9,84.1,19,83.5z M17.7,83.8C17.7,83.8,17.7,83.8,17.7,83.8
		c0.1,0-0.1,0.1-0.2,0.2c0,0,0,0,0,0C17.5,83.9,17.6,83.8,17.7,83.8z M16.9,83.4c0.1,0,0.1,0.1,0.2,0.1c-0.5,0.6-1,1.3-1.3,1.8
		c0.3-0.3,0.6-0.6,0.9-0.8c-0.4,0.7-0.9,1.5-1.5,1.9c0-0.1,0.1-0.2,0.1-0.3c-0.3,0.5-0.5,0.9-0.8,1.1c0,0-0.1-0.2-0.2-0.3
		c-0.1-0.2-0.1-0.3-0.1-0.3c0.3-0.2,0.7-0.5,1.2-1c-0.1,0.2-0.1,0.4-0.2,0.5c0.1-0.2,0.3-0.5,0.5-0.8c-0.1,0.1-0.2,0.2-0.3,0.3
		C15.8,85,16.2,84.2,16.9,83.4z M15.5,82.4c0.1-0.1,0.1-0.1,0.2-0.2c0,0,0,0,0,0.1c0,0.1,0.1,0.1,0.1,0.2c-0.2,0.1-0.4,0.2-0.5,0.2
		c-0.2,0.1-0.3,0.1-0.3,0.1C15,82.9,15.1,82.8,15.5,82.4z M21.2,72.4c-0.2,0.2-0.4,0.4-0.6,0.6c-0.4-0.1-0.6-0.3-0.3-0.5
		C20.6,72.3,20.9,72.3,21.2,72.4z M21.5,72C21.5,72.1,21.5,72.1,21.5,72L21.5,72C21.5,72.1,21.5,72,21.5,72z M16.8,83.3
		c-0.1,0.1-0.1,0.1-0.1,0.1C16.7,83.4,16.7,83.4,16.8,83.3C16.7,83.3,16.8,83.3,16.8,83.3z M52.9,69.5l-0.2,0.3
		C52.6,69.5,52.4,69.3,52.9,69.5z M96.3,52.5c0.1-0.6,0.6-0.1,0.9,0.1C96.8,53,96.7,53.6,96.3,52.5z M114.9,50.5
		c0.2-0.4,0.4-0.7,0.7-0.4C115.4,50.4,115.1,50.5,114.9,50.5z M152.7,16.6C152.7,16.6,152.7,16.5,152.7,16.6
		C153,16.9,153.1,17.1,152.7,16.6z"/>
</g>
</svg>
