<?xml version="1.0" encoding="utf-8"?>
<!-- Generator: Adobe Illustrator 22.1.0, SVG Export Plug-In . SVG Version: 6.00 Build 0)  -->
<svg version="1.0" id="Layer_1" xmlns="http://www.w3.org/2000/svg" xmlns:xlink="http://www.w3.org/1999/xlink" x="0px" y="0px"
	 viewBox="0 0 161 104" style="enable-background:new 0 0 161 104;" xml:space="preserve">
<style type="textcss">
	.st0{fill:#FFECA8;}
</style>
<g>
	<path class="st0" d="M106.6,93.6c0.5-0.5,0.5,0.2,0.9,0.6c-0.4-0.9,0.5-1.5,0.1-2.9l-0.4,0.6c0-0.2,0.1-0.6-0.1-0.8
		c0.1,0.8-0.3,1.6-0.8,0.8c-0.3,0.7,0.4,3.2,1,4.5c0-0.3-0.1-0.7,0.2-1.2C107.2,94.8,106.3,94.3,106.6,93.6z"/>
	<path class="st0" d="M130.9,92.1c0.5,0.6,1.1,1.7,0.8,0.8l-0.3-0.8C131.2,92.3,131.1,92.3,130.9,92.1z"/>
	<path class="st0" d="M137.6,70.3l-0.9,0.1C136.8,70.7,137.2,70.4,137.6,70.3z"/>
	<path class="st0" d="M150.2,75.8c-0.2-0.2-0.4-0.2-0.6-0.2C149.8,75.8,150,75.9,150.2,75.8z"/>
	<path class="st0" d="M118.3,95.2c-0.4-0.4-0.8-1.1-0.7-0.4C117.8,95.1,118.1,95.2,118.3,95.2c0.3,0.3,0.6,0.5,0.8-0.1
		c-0.1-0.1-0.1-0.1-0.2-0.2C118.7,95.1,118.5,95.2,118.3,95.2z"/>
	<path class="st0" d="M112,96.4C111.8,96.5,112,96.5,112,96.4L112,96.4z"/>
	<path class="st0" d="M110.5,93.2c0-0.1,0-0.2,0-0.4C110.5,93,110.5,93.1,110.5,93.2z"/>
	<path class="st0" d="M120,89.4L120,89.4C120,89.3,120,89.3,120,89.4z"/>
	<path class="st0" d="M111.6,96.1c0.1,0.1,0.2,0.2,0.3,0.2C111.9,96.2,111.8,96.2,111.6,96.1z"/>
	<path class="st0" d="M111.7,96.5c-0.1,0-0.1,0-0.2-0.1C111.5,96.6,111.6,96.7,111.7,96.5z"/>
	<path class="st0" d="M111.9,96.3c0,0.1,0.1,0.1,0.1,0.1c0.1,0,0.1-0.1,0.3-0.1C112.1,96.4,112,96.3,111.9,96.3z"/>
	<path class="st0" d="M134.7,56.7C134.7,56.7,134.7,56.7,134.7,56.7C134.3,56.6,134.4,56.7,134.7,56.7z"/>
	<path class="st0" d="M133.8,82.2C133.8,82.2,133.8,82.2,133.8,82.2C133.8,82.2,133.8,82.3,133.8,82.2L133.8,82.2z"/>
	<path class="st0" d="M134.6,84.7l-0.1-3.3c-0.1,1.1-0.3,1-0.6,0.8L134.6,84.7z"/>
	<path class="st0" d="M130.2,30.3l-0.2,0.1c0.1,0,0.2,0,0.3,0L130.2,30.3z"/>
	<path class="st0" d="M137.8,70.2C137.8,70.2,137.8,70.2,137.8,70.2c-0.1,0-0.1,0-0.2,0L137.8,70.2z"/>
	<path class="st0" d="M121.8,85.2c0.2,0.1,0.3,0.3,0.4,0.4C122.1,85.4,122,85.2,121.8,85.2z"/>
	<path class="st0" d="M110,96.6c0,0.2,0.2,0.5,0.1,0.6l0.4-0.3C110.3,96.9,110.1,96.7,110,96.6z"/>
	<path class="st0" d="M105.5,91.9c0,0.1-0.1,0-0.2,0.2l0.1,0.4C105.6,92.5,105.8,92.1,105.5,91.9z"/>
	<path class="st0" d="M109.2,94.1c-0.2-0.8-0.4-0.5-0.6-0.3c0,0,0,0,0.1,0C108.7,94.9,108.9,94.5,109.2,94.1z"/>
	<path class="st0" d="M108.2,93.9c0,0.5,0.1,0.1,0.3-0.1C108.4,93.9,108.3,93.9,108.2,93.9z"/>
	<path class="st0" d="M112.5,95.7c-0.2-0.2,0.1,1-0.1,0.7C112.5,97.4,113.2,95,112.5,95.7z"/>
	<polygon class="st0" points="108.7,92.5 108.8,91.6 108.5,91.5 	"/>
	<path class="st0" d="M110.9,91.8l-0.5-0.2c0,0.2,0,0.3-0.1,0.4C110.6,92,111,92.1,110.9,91.8z"/>
	<path class="st0" d="M110,92.2c0.1,0,0.2-0.1,0.3-0.2C110.2,92,110,92,110,92.2z"/>
	<polygon class="st0" points="109.2,91.3 109.6,91.3 109.1,91.1 	"/>
	<path class="st0" d="M116,91.2l0.5-0.4c0-0.3-0.2-0.5-0.3-0.4C116,90.7,115.8,90.9,116,91.2z"/>
	<path class="st0" d="M114,88.7c0.2,0.2,0.2,0.4,0.3,0.7l-0.2-1.2L114,88.7z"/>
	<path class="st0" d="M115.4,87.3c0,0.3-0.5,0.7,0.1,0.9C115.4,87.9,116,87.1,115.4,87.3z"/>
	<polygon class="st0" points="123.3,88.3 123.2,88.4 123.7,90.4 	"/>
	<path class="st0" d="M128.8,83.5c0.2-0.6,0.5-0.4,0-1.6c-0.7-0.3,0.2,1.3-0.5,0.8C128.2,83.2,128.8,83.1,128.8,83.5z"/>
	<path class="st0" d="M128.8,83.5c0,0.1-0.1,0.2-0.1,0.3C128.7,83.7,128.8,83.6,128.8,83.5z"/>
	<path class="st0" d="M132.7,67.9c0,0.1,0.1,0.1,0.1,0.1C132.8,68,132.8,67.9,132.7,67.9z"/>
	<path class="st0" d="M140.1,82.8c0,0.1,0.1,0.2,0.4,0.3C140.4,83,140.2,82.9,140.1,82.8z"/>
	<path class="st0" d="M10.2,36.9c0.7,0.9,1.6,1.4,2.6,1.8l0.6-0.7c1.2,0.1,1.1,1.8,2,2.7c-0.3,0.2-0.5-0.1-0.5-0.4
		c-0.4,2.5,3.3,1.3,3.4,3.4c0.5,0,0.6,0.3,0.7,0.7c0,0-0.1,0-0.1,0c0,0,0.1,0.1,0.1,0.1c0,0.2,0,0.5,0.1,0.7c0-0.3,0-0.5,0-0.7
		c0.2,0.2,0.7,0.4,1.2,0.6l-0.5,0.9c0,0,0.1,0,0.1,0.1c0.1,0.6,0.6-0.1,0.9-0.8c0.3,0,0.6,0,0.8-0.1c-0.7,1.5,1.3,0.3,0.7,2
		c0.7-0.4,2.4,0.9,3.5-0.5c-0.1,0.2,0,0.4-0.3,0.2c0.3,0.4,0.7,0.8,1.3,0.6l-0.4,1.2c0,0,0.4-0.2,0.9-0.5c0.4-0.3,0.8-0.5,0.8-0.5
		c0.2,0.9,0.3,1.5-0.7,2c2-0.6,1.4,0,3.1-0.7l-0.4,0.7c0.4,0.2,1.5-0.5,1.5,0.2c0.1,0.9,1.2,1.5,2.6,2.1c1.3,0.6,2.9,1.2,3.9,2.4
		c0.3-2.4,0.8,1.4,1.5-0.3c0,0.6,0.2,1-0.4,1.3c1.4,0,1.6,1.5,3,0.4c0,0.6-0.5,0.7-0.5,1c0.1-0.1,0.6-0.3,0.6,0
		c0,0.4-0.3,0.4-0.6,0.5c1.3,0.3,2-1.2,2.6-2.7c0.4,0.9,0.8,0.9,1.6,0.1c0.1,0.6,0.3,1.2-0.6,1.1c0.4,0.2,2.5,1.6,3,0.4
		c0.1,0.4,0.6,0.3,0.8,0.2c1,0.4,1.1,0.5,2.1,0.7l-0.2-0.3c0.8-1.4,0.9-0.1,1.8-0.1l-0.1,0.1c1.6,1.6,0.9-0.3,2.4,1.4l0.1-1
		c0.7-2,1.3,1.6,2.6,1.1l-0.3-0.6c0.7-0.5,1,3.1,1.5,3.5c0.1,0.2-0.3,0.2-0.5,0.3c1.3,1.5,0.5-1.2,1.7-1.2c0.1,0.7-0.7,1.6,0.1,1.9
		c0.3,0.6,2.8-1.7,3.6-0.2c-0.1-0.6-0.3-1.1,0.3-1.4c0.9,0,1.9,2.3,2.9,0.8c0.1,0.2,0.1,0.3,0.1,0.4c0.7-0.3,2.1-0.4,2.7-1.2
		c0.1,3.4,4.1-1,3.6,2l1.9,0.2l-0.1,0.3c1.1,0.4,1.7-0.2,2.3-0.9c0.2,0.3,0,0.5-0.1,0.7c1.6,1,1.8,0.9,3.6-0.3l-0.1,1
		c0.5-0.5,2.2,2.1,4.2,1.4c0,0.1-0.1,0.3-0.3,0.4c2.2-0.7,4.1,3.8,5.6,0.4l1.5-0.6c-1.6-0.6,0.6-1.5,0-2.2c0.7-0.1,1.5,1.4,0.6,1.4
		l-0.1-0.2c-0.7,1.8,2,1.1,1.7,2.3c3.3,0.6,6.3,2.2,9.4,2.9l-0.1-1.5l1,0.3c0.2,0.4,0.2,1.2-0.6,1c0.2,0.9,1.4-0.4,1.5-0.7
		c1.4,0.9-0.9,1.6-0.5,1.7l0.6,0l-0.1-0.2c0.6-0.5,0.8-1.1,1.7-0.8c0.5,0.4,0.1,0.9,0.3,1c0,0.1,0,0.2,0.3,0.1l1.3,0.4l-0.3-1.2
		c0.7-0.4,1.2,0.3,0.9-1.1c0.5,2.2,4.8,1.8,5.2,2.6c1-0.6,1.8-0.4,2.8,0c-0.2-0.3,0-1.6,0.8-1.2c-1,2.5,1.3,1.6,1.4,3.6
		c-0.2-1.4,2.5,0.4,2-1.6c0.6,0.4-0.3,1,0.1,1.7c2-0.5,3.4,1.8,5.5,2.2c0.2-0.3,0-0.9,0.6-1.3c0,0,0.1,0.5,0.2,1l0.2,1
		c0.4,0,1.1-1.7,1.3-0.3c0-0.3,0.1-0.8,0.4-0.8c1.5,1.6,3.4,2.2,5.2,3.2c0.4,0.2,0.9,0.5,1.3,0.8c0.2,0.1,0.5,0.3,0.7,0.5
		c0.2,0.2,0.4,0.4,0.6,0.6c0.4,0.4,0.8,0.8,1,1.3c0,0.2,0,0.4,0,0.6c0,0.6-0.1,1.3-0.3,0.7c0.1,0,0.1,0.1,0.1-0.3
		c0,0.2-0.1,0.2-0.2,0.3c-0.1,0-0.2,0-0.4,0c-0.2-0.1-0.4-0.3-0.4-0.6l0.1,0c-1-0.1-2.8,0.4-2.7,2.1c0-0.2-0.2-2-0.2-2.4
		c0,0-0.2,1.5-0.3,3c-0.1,1.5-0.2,3-0.2,3c-0.1-1.5-1.4-4.8-0.8-5.7c-0.3-0.2-0.6-0.3-0.9,0.3c0.2,0.2,0.8,2,0.6,2.2
		c-0.9-1.5-0.6-0.8-1.5-2c0.3,0.3,0.5,2.5,0.2,2.5c0-0.3-0.5-2.2-0.5-2.5l-0.3,2.4c0.1-0.4-0.4-1.9-0.7-2.4c0.2,0.4-0.7,0.1-0.9,0.4
		l0.5,0.4c-1-0.1-0.2,3.3-1.1,3.4c0-0.5-0.4-2.8-1-3c0.1,1.2,0.4,5.6-0.1,6.7l-0.3-0.6l-0.4,0.9c0-1.8,0.1-5.6,0.3-7.1
		c-0.5-0.4-0.3-0.7-0.8-0.5c-0.3-0.6,0-1,0.2-1.1l-1.3-0.1c0.4,1.3-0.6,1.5-0.2,2.6l0.9-1.7c0.4,1.3,0.2,3.9-0.7,3.9
		c-0.3-0.5-0.4-2.4-0.6-2.8c0,0.5-0.6,1.1-0.7,0.8l0.2-0.8c-0.6-0.4-0.3,1.9-1.2,0.8c-0.2,0-1-1.5-0.8-0.8c0.7,1.4,1.8,6,1.9,7.2
		c-0.1-0.1-1.4-1.2-1.8-1.9c-0.6-1.1-0.1-2.9-0.6-3.9c0.1,0.4,0,0.8,0,1c-0.3-0.3-0.2-1.1-0.6-0.9c0.2,1.3-0.9,0.1,0,1.2
		c-0.3,0.5-0.5-0.2-1,0c0.3,0.8,0.1,3-0.3,3.5c0-0.3-0.2-0.8-0.3-1c-0.9,0-1.5-0.5-2.4-0.4c-0.1-0.3-0.6-0.6-0.5-1.2
		c-0.1,0.3-0.1,0.7-0.4,0.8c-0.7-1.1,0.5-0.3-0.1-1.6c0.1,0.8-0.5,1.2-0.8,1.7c0.3,1.2,0.9,0.1,1.2-0.5c0.3,1.7-0.1,3.5-0.8,4.4
		c-0.6,0.5-0.5-1-0.6-0.8c-1.4-0.1-0.7,3.1-1.9,2.1c-0.6-1-0.4-2.1-0.6-2.9c0.5-0.5,1,0.5,1.4,0.4l-0.6-0.4c0.1-0.4,0.5-0.7,0.7-0.4
		c-0.5-0.9-2.3,0.2-3.4-0.5c-0.1,0.4-0.4,0.8-0.2,1.2l0.3-0.2c0.4,0.8-0.4,1.3,0.1,1.6c-0.3,0.7-0.7,1.7-1.3,1.3l-0.3-1.2
		c0.1,0.3,0.5,0.7,0.6,0.3c-0.2,0.6-1.2-1.5-1.2,0.1l0.6,0.8c-0.3,0.7-0.6,2.1-1.2,1.8c0.4,1.2,0.1-0.2,0.7,1.2
		c-0.6-1.7,1.4-0.2,0.5-1.9c0.7,1.6,0.8,0.6,1.5,1.9c-0.1-0.4-0.3-0.7,0.2-0.6c0-0.1,0-0.3,0-0.4c0,0,0,0,0,0l0,0c0-0.1,0-0.1,0,0
		c-0.1-0.2-0.3-0.4-0.3-0.6c0.1-1,0.8-1,1-1.6c0.3,0.1,0,0.5,0.2,0.9l0.2-0.8c0.2,0.9,1,1.4,0.4,2l0.6-0.1c0.4,0.4,0.9,0.6,1.1,0.1
		c0.3,0.1,0.5-1.1,0.4-0.4l0.8-0.7l0,0.2c0.9,0,1.6-1.8,2.9-0.3c0.3-0.3,0.5-0.6,1.1-0.4l0.2,0.7c0.3-0.3,1.3,0.6,1.4-0.3
		c0.8,2,2.1,0,2.9,0.2l-0.2-1c0.5-0.1,0.9-0.4,1.4-1l-0.2-0.9c0.3-0.8,1.4,0.3,2.2,0c0,0.3-0.2,0.3-0.4,0.1c1.4,1.7,1.6-1.9,2.8-0.7
		c0.1-0.4,0.3-0.3,0.5-0.1c0,0,0,0,0,0.1c0,0,0.1,0,0.1,0c0.1,0.1,0.3,0.3,0.4,0.4c-0.1-0.2-0.3-0.3-0.4-0.4
		c0.2-0.1,0.4-0.2,0.5-0.5l0.3,0.9c0,0,0,0,0,0c0.3,0.3,0.1-0.5-0.2-1.2c0.1-0.2,0.1-0.4,0.2-0.6c0.6,1.5,0.5-0.7,1.1,0.9
		c0-0.8,1-0.9,0.8-2.5c0.1,0.2,0.1,0.3,0,0.3c0.3,0.1,0.6,0.3,0.7-0.3l0.4,1.2l0.2-1.7c0.5,0.7,0.7,1.1,0.6,2.1
		c0.5-1.6,0.5-0.7,1-2.2l0.1,0.8c0.2-0.1,0.5-1.2,0.7-0.6c0.4,0.7,1.1,0.7,1.8,0.6c0.2,0,0.5,0,0.7,0c0.3,0,0.7,0.1,1,0.1
		c0.7,0.1,1.4,0.4,2.1,0.8c-0.7-1.2-0.3-0.9,0.1-0.6c0.5,0.4,1.1,0.8,0.7-0.1c0.4,0.6,0.9,0.9,0.7,1.4c0.5-0.3,1,0,1.5,0.1
		c0.5,0.1,0.8,0,0.6-0.7c0.5,0.5,0.3,0.8,0.6,1.1c0-0.1,0-0.5,0.4-0.2c0.3,0.3,0.2,0.5,0.2,0.7c1.1-0.3-0.1-1.9-1.2-3.4
		c1,0.7,1.2,0.5,0.7-0.4c0.6,0.5,1.2,0.9,0.8,1.1c0.4,0.1,2.5,0.2,1.4-0.8c0.4,0.2,0.5,0,0.4-0.2c0.7-0.1,0.9-0.1,1.5-0.5l-0.4-0.1
		c-0.6-0.6-0.5-0.7-0.3-0.7c0.1-0.1,0.3,0,0.2-0.3l0.2,0.1c0.6-0.1,0.5-0.2,0.4-0.4c-0.1-0.2-0.3-0.4,0.7-0.3l-1.3-0.7
		c-1.1-0.7-1.1-0.8-0.6-0.8c0.5,0,1.5,0,0.7-0.8l-0.3,0c-0.2,0-0.3,0-0.3,0c-0.6-0.4,0.3-0.3,1.2-0.2c0.9,0.1,2,0.1,2-0.1
		c0.2-0.1,0.4,0.3,0.7,0.6c0.8-1.1-1.7-0.8-2.5-1.9c0.7,0,2.2,0.9,2,0.1c0.2-0.1-0.7-0.9-1.4-1.6c-0.7-0.7-1.3-1.3-0.8-1.8
		c-0.5,0.2-1,0.3-1.5-0.1c-0.2-0.3,0.2-0.8,0.4-1.3c0.2-0.5,0.2-1-0.7-1.2c0.1-0.1,0.2-0.2,0.4-0.2c-0.3-0.2-0.6-0.6-0.9-0.9
		c-0.3-0.3-0.7-0.4-1.1-0.4c3.1-1.4-2.3-1.8,0.6-2.7l-0.5-1.1l0.3-0.1c-0.1-0.8-0.8-0.8-1.6-0.8c0.1-0.2,0.4-0.2,0.6-0.3
		c0.2-1.3,0-1.3-1.7-1.6l0.9-0.4c-0.6,0,0.9-2.1-0.6-2.7c0.1,0,0.3-0.1,0.5-0.1c-1.5-0.7,1.3-3.9-2.2-2.8l-1.2-0.4
		c0.2,1.1-1.5,0.5-1.8,1.2c-0.4-0.3,0.5-1.4,0.9-1l-0.1,0.1c1.8-0.6,0-1.4,1.2-2c-1-1.7-0.9-3.9-1.6-5.6l-1.2,0.8l-0.2-0.6
		c0.2-0.3,0.9-0.7,1.1-0.3c0.6-0.6-1-0.4-1.3-0.3c0.1-1.1,1.7-0.4,1.6-0.7l-0.3-0.3l-0.1,0.1c-0.7,0-1.3,0.2-1.4-0.3
		c0.1-0.4,0.7-0.5,0.7-0.7c0.1,0,0.1-0.1-0.1-0.2l-0.2-0.8l-0.9,0.8c-0.7-0.1-0.3-0.7-1.3,0.2c1.6-1.4-0.6-3-0.2-3.6
		c-1-0.1-1.2-0.6-1.3-1.2c-0.2,0.2-1.3,0.8-1.4,0.3c2.5-0.9,0.7-1.4,2.3-2.5c-1,0.8-0.9-1.2-2.3,0c0-0.5,0.9-0.4,1.4-1
		c-1.4-0.6-0.2-2.4-1-3.4c-0.3,0.1-0.8,0.5-1.3,0.4l1.4-1.2c-0.2-0.2-2,0.5-1-0.4c-0.3,0.2-0.6,0.4-0.8,0.3c0.4-1.5-0.4-2.6-0.9-3.7
		c-0.5-1.2-0.9-2.4,0.4-4c-0.6,0.5-0.7,0.3-0.8,0.1c-0.1,0.2-0.8,0.2-1.3,0.4l1-1.4c-1,0.1-0.7-0.6-1-0.8l-4.1,3c0,0,0,0,0.1-0.1
		l-0.3,0l3.8-2.8c-1.5,0.1-2.9,1.4-4.7,1.8c1.8,0.1-2.1,2,0.5,2.2c-0.3,0.3-0.6,0-1,0.2c0.9,0,1.1,0.2,0.9,0.8l-0.2,0
		c0.6,1.3,0,2.1,0,3.8l0.9-0.4c0,0.4-0.3,0.5-0.5,0.7c1.5-0.1-0.2-0.9,1.4-1.1c-1.7,1,0.7,2.3-1.2,3.3c0.2,0.5,1-0.5,1.1,0l-0.5,0.3
		l0.8-0.1c0,0.4-0.6,0.8-1.1,1c0-0.1-0.2-0.2-0.3-0.2c-0.5,0.7,0.7,1.1,0.5,1.3l0.2-0.6c1,1.1,0.9,3,2.6,3.8l0.4-0.3
		c1.2,0.6-0.1,1,0.7,1.9l-0.1,0c0.5,0,0.8,0.2,0.9,0.5c-0.6-0.1-0.7,0.9-1.4,0.8c1.3,0.7,0.9,0.2,2.7,0.2l-0.6,0.5
		c0.7,0,1-0.2,1.5,0.3c-0.8-0.2-0.9,0.8-1.9,0.7c-1,1.8,2.2,0.9,0.3,2.4c2.1-0.4,0.6-1.4,1.1-1.3c0.5-0.5,1.6-0.2,1.5,0.2
		c0.1,0.4-2.1,1.7-1.7,2.5c0-0.1-0.2,0-0.2-0.1c-0.3,0.5,0.9,0.3,0.4,1.1c1.2-0.3,0.2,0.5,1.6-0.1l-0.7-0.6c0.6,0.3,2.5-0.1,2,1
		c-0.3,0.1-0.8,0-1.1,0c-0.3,0.4,0.5,0.3,0.2,0.7c-1.5,0.6-0.8-0.8-2.1-0.8c-0.5,0.5,1.5,0.4-0.2,0.9c2.1-0.6,0.2,1,1.9,0.8
		l-0.9,0.4c0.2,0,0.7,0,0.7,0.2l-1.3,0.2c1.2,0-0.4,1.3,0.3,1.5c-0.5-0.9,0.9-0.7,1.4-1.4c1.7,0.6-1.9,1.8-0.9,2.8
		c-0.2-0.1,0.2-0.9,0.7-0.8c-0.1,0.3-0.2,0.8-0.6,1.2c0.6,0.8,0.8-0.6,1.5-0.5c-0.9,0.8,0.6,0.2,1.1,0.4l-0.9,0.4
		c-0.1,1.2,1.9-0.6,1.7,0.5l-1.4,0.2l0.5,0.3l-1,0.4c1,0.1,0.8,0.4,0.8,0.9c0.6-0.4,1.6-0.7,1.8-0.3c-0.4,0.5-0.9,0.2-0.5,0.8
		c-0.6,0.1-1.4,0.3-0.7-0.3c-0.3,0.1-0.6,0.1-0.9,0.2c-0.5,0.6,0.2,0.8,0.3,1c0-0.1,0-0.2,0.1-0.3l1.6,0.3c-0.3,0.3-0.6,0.3-0.9,0.3
		c0.2,0.1,0.6,0.1,0.8,0.3c-0.7,0.2-1.5,0.6-2,0.4l1.1,0.5c-0.3,0.2-0.7,0.8-1,0.8c-0.2,0.6,1.9,0.5,1.5,1.4c0.2,0,0.3,0,0.5,0.1
		c0,0.3-0.2,0.8-0.1,1.1c-0.1-0.1-0.1-0.1-0.2-0.2l-0.3,0.9c-0.5-0.4-0.4-0.7-0.5-1.1c-1.3,0.9,1.4,0.9,0.1,2c0.2-1-0.8-1.6-1.6-2.1
		c-0.9-0.5-1.7-1-1.5-2.1c-0.8-0.4-0.2,1.1-1,0.7l0-0.6l-0.5,0.6c-0.5-0.3-0.5-1.1-0.3-1.6c0.1,0.1,0.4,0,0.6,0.1
		c-0.5-1-2.1-0.6-2.3-0.9l0.7,0.7c-2.5-0.4-5-2.1-7.6-1.6l0,0.5c-1.9,0.3-1.2-0.9-3.2-1l0.1-0.1c-0.5,0.3-1,0.4-1.5,0.2
		c0.6-0.4-0.6-1.2,0.1-1.6c-2.1,0.4-1.1,0.4-2.7,1.7l-0.1-0.8c-0.6,0.6-0.7,0.9-1.6,0.9c0.9-0.4-0.3-1.2,0.7-1.9
		c-1.6-2-3.2,0.9-3.6-1.6c-1.3,1.8,1.4,1.5,0.8,1.8c0.3,0.7-1.1,1.3-1.6,1c-0.6-0.2-0.5-2.8-2.1-3.1c0.2,0,0.2-0.1,0.3-0.1
		c-0.5-0.6-1.3,0.5-1.8-0.5c-0.6,1.1-0.9-0.3-1.3,1.3l1.5-0.1c-0.9,0.2-2,1.9-3.2,0.8c0.2-0.3,0.6-0.6,1-0.8
		c-0.3-0.5-0.8,0.2-1.1-0.4c0.4-1.5,1.8,0,2.9-1c-0.3-0.7-1.9,0.8-1.1-0.8c-1,2-1.5-0.6-2.8,0.9l0.2-0.9c-0.2,0.1-0.6,0.5-0.9,0.4
		l0.8-1.1c-1,0.9-1.5-1.2-2.4-0.8c1.7,0.3,0.2,1.2,0.8,2c-2.3,0.8-0.7-2.7-3.2-2.7c0.3-0.1,1.1,0.8,0.5,1.1
		c-0.4-0.3-0.9-0.7-1.1-1.3c-1.6-0.1,0.1,1-0.7,1.4c-0.3-1.2-0.8,0.3-1.6,0.5l0.2-0.9c-1.6-1-0.9,1.9-2.3,0.8l0.9-1.2L93.6,59l0.4-1
		c-1,0.6-1.3,0.4-2.1-0.1c0.1,0.7-0.5,1.7-1.3,1.5c-0.4-0.7,0.5-0.8-0.6-0.9c0.4-0.5,0.8-1.2,1.1-0.2c0.1-0.3,0.4-0.5,0.5-0.8
		c-0.4-0.8-1.4-0.5-1.8-0.5c0.1,0.1,0.3,0.2,0.4,0.3l-1.9,0.9c-0.2-0.4,0.1-0.6,0.4-0.9c-0.3,0-0.7,0.4-1.2,0.4
		c0.3-0.7,0.5-1.5,1.2-1.7L87,56.3c0-0.4-0.6-1.1-0.3-1.3c-0.7-0.6-2.4,1-3.4,0.1c-0.1,0.1-0.2,0.2-0.5,0.3c-1-0.4-1.8-1.6-3.3-0.8
		L79,53.1c-1.1,0.1,0.7,1.9-1.1,2.1c-1.3,0.2-0.2-1.3-0.6-1.7c-0.7,0.6-2,1.8-2.9,0.5c0.4-0.2,0.7,0.1,1,0l-0.7-0.9
		c1.2-1.1,1.9-0.5,1.3-1.7c-0.6,2.6-3.3-0.3-3.9,2.4l-0.5-0.7c0.2,0.1,0.2-0.1,0.4-0.1c-0.8-1.5-1.1,1.8-2.4,1.2
		c-0.4-0.3-0.7-0.7-0.3-1l-1.1,0.5c-0.3-0.1-0.1-0.6,0.1-0.5l-1.6-0.1l0-0.1c-0.3,0.4-0.9,0.9-1.2,1.2c-0.3-0.5,0.2-0.2,0.2-0.6
		l-1,0.5c-0.2-0.8,0.6-1.3,1.2-1.1c-0.3-2.8-0.8,0.5-2.2-1.3l0.9-0.2c-0.2-1.6-0.9-1.2-1.6-2.3c0.1,0.5,1.2,2.7,0.2,3.2
		c-0.2-0.3-0.5-0.4-1.1,0c0.2-0.9-0.3-0.8-0.9-0.9l0.3-1.2c-0.7,0.2-0.8,0.9-1.4,1.3c-0.7-0.3-0.6-1.3-0.6-2.2
		c-1.1-0.5,0.4,1.7-1,1.6c-0.9-0.7-1.7-0.4-3,0.1c-0.6-0.6,0.3-0.7,0.2-1.1L54.7,51c-0.1-0.1,0-0.4,0.1-0.5
		c-0.6,0.2-0.4,1.2-1.3,1.3c-0.6,1.3-1.1-2.4-2.5-1.2c-0.1-0.4,0.3-0.7,0.4-1.2c-1.6,0.6-1.4,0.4-2.9,1.4l-0.7-1.1
		c0.4,1.1-0.8,2-1.9,2.6c0.1,0.5,0.2,1,0.3,1.2l-1.5,0.3c-0.1-0.2,0.2-0.6,0.5-1.1c-0.1,0.1-0.2,0.1-0.3,0.2
		c-0.3-0.6,0.2-1.2,0.7-1.8c0.1,0.3,0.1,0.6,0.2,0.9c0.5-0.6,1.1-1.4,1.2-2.1c-0.1,0.1-0.3,0.2-0.5,0.2c0.1-0.2,0.3-0.3,0.3-0.5
		c0-0.1-0.2,0.1-0.5,0.3l0.2-1.4l-0.2,0.5l-1.3-1.4c-1.6,1-3.3,2.6-5.3,2.5c0.8-0.8,0.7-1.6,1.2-2.7c0,1.4,1.6,0,2.4,0.6
		c-0.4-0.3-0.1-0.8,0.1-1l-2.1,0.5c0.4-0.9-0.1-0.8-0.4-1.4c-0.4,2-1.7,0.8-2.6,1.1c0.2-0.6,0.6-1.2,1.4-0.7c-0.3-1.8-2,1.7-2.4,0.2
		c0.2,0.1,0.3,0.2,0.5-0.1c-0.7,0.4-1.6-0.6-1.1-1l0.2,0.1c-1.2-0.7-4-1.8-4.9-0.3c0.1-0.2,1-1.8,1.2-2.1c0,0-1.2,1-2.4,2.1
		c-1.2,1-2.4,2-2.4,2c0.8-1.2,1.6-4.7,3-4.9c-0.2-0.3-0.4-0.7-1.3-0.6c0.1,0.3-0.5,2.1-0.8,2.1c0-1.8-0.1-1-0.3-2.7
		c0.1,0.4-1.3,2.3-1.7,1.9c0.2-0.3,1.1-2,1.4-2.1l-1.1,0.6c-0.6,0.3-1.1,0.6-1.1,0.6c0.5-0.2,1.1-1.6,1.3-2.2
		c-0.2,0.4-0.8-0.6-1.2-0.6l0.1,0.7c-0.8-1.1-3.1,1.6-4.2,0.4c0.5-0.2,2.3-1.8,1.9-2.5c-1,0.6-5,2.9-6.6,2.5l0.3-0.7l-1.3-0.2
		c1.7-0.8,5.6-2,7.3-2.3c0-0.8,0.4-0.7-0.2-1.2c0.2-0.7,1-0.3,1.2-0.2l-1.1-1.7c-0.9,1-2.1-0.2-2.8,0.7l2.6,0.6
		c-0.9,1-3.6,1.8-4.5,0.6c0.1-0.6,1.9-1.5,2.2-1.8c-0.5,0.2-1.7-0.4-1.5-0.7l1-0.1c-0.3-1-2.3,0.3-2.1-1.3c-0.2-0.3,0.5-1.9,0-1.3
		c-0.8,1.4-3.9,5-5,5.5c0-0.1-0.4-2.5,0-3.2c0.3-0.6,1-0.8,1.7-1.1c0.7-0.3,1.3-0.6,1.6-1.1c-0.3,0.2-0.8,0.3-1,0.3
		c0.1-0.4,1-0.6,0.6-0.9c-1.2,0.7-0.4-0.9-1.1,0.4c-0.6-0.3,0-0.6-0.3-1.1c-0.4,0.2-1.1,0.3-1.9,0.2c-0.7-0.1-1.5-0.5-1.7-0.8
		c0.3,0,0.8-0.3,1-0.4c-0.1-1.5,0.4-2.4,0.3-3.8c0.3-0.2,0.7-0.8,1.3-0.6c-0.3-0.2-0.7-0.3-0.8-0.8c1.2-0.9,0.2,0.9,1.6,0.3
		c-0.8,0-1.1-1-1.6-1.6c-1.2,0.2-0.2,1.4,0.3,2c-1.7,0.1-3.5-0.9-4.3-2.6c-0.4-1.3,1.1-0.5,0.9-0.7c0.4-2.3-2.8-2.3-1.3-4.2
		c1.2-0.6,2.1,0.3,2.9,0.2c0.3,1-0.9,1.4-0.9,2.1c0,0,0.1-0.2,0.3-0.4l0.3-0.4c0.3,0.4,0.5,1,0.2,1.4c0.5-0.3,0.6-1.2,0.8-2.3
		c0.2-1.1,0.5-2.2,1.1-3c-0.3-0.4-0.5-1-1-0.8l0,0.6c-1,0.3-0.9-1.3-1.5-0.7c-0.4-0.9-1.1-2-0.3-2.9l1.2,0.2
		c-0.3-0.1-0.9,0.5-0.6,0.9c-0.4-0.6,2.1-1,0.7-2L11.1,10C10.8,9,9.9,7.6,10.7,6.8c-1.3,0,0,0.3-1.5,0.4c1.9,0-1,2.5,1.1,2.1
		c-1.8,0.2-1.1,1-2.7,1.5c0.4,0.1,0.8-0.1,0.4,0.7c0.1,0.1,0.2,0.2,0.3,0.3c0,0,0,0,0,0l0.1,0c0,0.1,0.1,0.1,0,0
		c0.2-0.2,0.5-0.3,0.7-0.3c0.8,0.7,0.4,1.9,0.8,2.5c-0.3,0.4-0.4-0.3-0.9-0.1l0.6,0.8c-0.9-0.1-1.7,1.1-2-0.3c0,0-0.1,0.3-0.1,0.5
		c-0.1,0.3-0.1,0.5-0.1,0.5c-0.6,0.6-0.9,1.4-0.6,2c-0.3,0.5,0.9,1.4,0.2,0.9c0,0,0.1,0.4,0.2,0.9c0.1,0.4,0.2,0.9,0.2,0.9l-0.2,0
		c-0.2,1.8,1.4,3.4-0.1,5.4c0.3,0.5,0.6,1.1,0.4,2.1l-0.8,0.3c0.3,0.7-0.5,2.3,0.4,2.5c-0.9,0.7-0.7,2.2,0,3.6
		c0.4,0.7,0.9,1.3,1.3,1.9c0.5,0.6,0.8,1,1.1,1.4L10.2,36.9z M114,95.3C114,95.3,114,95.3,114,95.3C114.3,95.6,114.2,95.4,114,95.3z
		 M139.6,52.1l-0.2,0.2C139.1,52.1,139.4,52.1,139.6,52.1z M139,81.9c0.1,0.3,0.2,0.6,0.3,0.9c-0.1,0.1-0.2,0.1-0.2,0.3
		C139,82.6,139,82.1,139,81.9z M141.2,85l-0.2,0.1C141,85.1,141.1,85.1,141.2,85c-0.1,0.2-0.2,0.2-0.3,0.3c0-0.2-0.1-0.3-0.1-0.5
		l0.1-0.1l-0.1,0c-0.2-0.7-0.5-1.2-0.8-2c0,0,0.1,0,0.1,0.1c0,0,0,0,0,0c0.2,0.2,0.2,0.1,0.2-0.1c0-0.1,0-0.2,0-0.3
		c0,0,0.1-0.1,0.1-0.1c0,0,0,0,0,0c0,0,0,0,0,0c0.1-0.1,0.1-0.1,0.2-0.2c0.1,0.2,0.2,0.5,0.3,0.8c0,0,0,0,0,0c0,0.2,0,0.5,0,0.6
		c0,0.2,0,0.3,0,0.3c0.1-0.1,0.2-0.1,0.2-0.1C141.4,84.1,141.4,84.7,141.2,85z M142.8,83.9C142.8,83.9,142.8,83.9,142.8,83.9
		c-0.1-0.1-0.3-0.1-0.3-0.1c0,0,0.1,0,0.1,0C142.7,83.8,142.8,83.9,142.8,83.9z M144.8,85.7c-0.1-0.1-0.2-0.2-0.3-0.3
		c0.2,0.3,0.4,0.6,0.5,0.8C144.9,86.1,144.9,85.9,144.8,85.7c0.6,0.5,1,0.8,1.2,1c0,0-0.1,0.2-0.1,0.3c-0.1,0.2-0.2,0.3-0.2,0.3
		c-0.3-0.2-0.5-0.6-0.8-1.1c0,0.1,0.1,0.2,0.1,0.3c-0.6-0.4-1.1-1.2-1.5-1.9c0.3,0.3,0.6,0.6,0.9,0.8c-0.4-0.6-0.8-1.2-1.3-1.8
		c0.1,0,0.1-0.1,0.2-0.1C144.1,84.2,144.6,85,144.8,85.7z M145.2,82.8c-0.1,0-0.1,0-0.3-0.1c-0.2-0.1-0.3-0.2-0.5-0.2
		c0-0.1,0.1-0.1,0.1-0.2c0,0,0,0,0-0.1c0.1,0.1,0.1,0.1,0.2,0.2C145.2,82.8,145.3,82.9,145.2,82.8z M140,72.5
		c0.3,0.2,0.1,0.4-0.3,0.5c-0.2-0.2-0.4-0.4-0.6-0.6C139.4,72.3,139.7,72.3,140,72.5z M138.9,72.1L138.9,72.1
		C138.8,72.1,138.8,72.1,138.9,72.1C138.8,72,138.8,72.1,138.9,72.1z M143.6,83.3c0,0,0.1,0.1,0.1,0.1
		C143.7,83.4,143.6,83.4,143.6,83.3C143.5,83.3,143.6,83.3,143.6,83.3z M107.5,69.8l-0.2-0.3C107.9,69.3,107.7,69.5,107.5,69.8z
		 M63.2,52.6c0.3-0.2,0.8-0.7,0.9-0.1C63.6,53.6,63.5,53,63.2,52.6z M44.8,50.1c0.3-0.2,0.5,0,0.7,0.4
		C45.2,50.5,44.9,50.4,44.8,50.1z M7.6,16.5C7.6,16.5,7.6,16.6,7.6,16.5C7.2,17.1,7.3,16.9,7.6,16.5z"/>
</g>
</svg>
